<?xml version="1.0" encoding="UTF-8" standalone="no"?>
<!-- Created with Inkscape (http://www.inkscape.org/) -->

<svg
   version="1.1"
   id="svg1"
   width="1293.0466"
   height="509.69247"
   viewBox="0 0 1293.0466 509.69247"
   xml:space="preserve"
   xmlns="http://www.w3.org/2000/svg"
   xmlns:svg="http://www.w3.org/2000/svg"><defs
     id="defs1" /><g
     id="g1"
     transform="translate(-161.25063,-244.76201)"><g
       id="g113"
       style="display:none"><rect
         style="fill:#000000;fill-opacity:1;stroke-width:14.3462;stroke-linecap:square"
         id="rect113"
         width="1536"
         height="1024"
         x="0"
         y="0" /><path
         style="display:inline;fill:#ffffff;fill-opacity:1"
         d="m 464.90032,608.42368 c 0.12935,-7.88482 1.95442,-25.96656 3.54685,-35.14011 l 1.25269,-7.21642 -3.95247,-2.61562 c -11.76524,-7.78587 -36.80173,-27.63265 -46.40843,-36.7886 -4.71337,-4.49223 -5.46282,-4.86228 -8.64033,-4.26617 l -3.4793,0.65272 -0.49884,21.72526 c -0.39785,17.32655 -0.93591,23.64872 -2.6575,31.22526 -1.18725,5.225 -2.4085,10.68815 -2.71388,12.14033 -0.5411,2.5731 -0.29393,2.72151 9.70766,5.82876 13.64577,4.23942 28.21972,10.70949 41.53449,18.43913 12.4606,7.23378 12.12324,7.34298 12.30906,-3.98454 z m 66.49647,-51.81611 c 4.0906,-1.70916 5.6125,-5.52986 5.57935,-14.00679 -0.0331,-8.45187 -1.35485,-13.34286 -4.49043,-16.6157 l -2.67456,-2.79164 5.31723,-0.0412 c 6.22382,-0.0482 8.33478,-1.91918 7.4233,-6.57934 -0.31488,-1.6099 -0.76212,-3.11669 -0.99386,-3.34843 -0.23174,-0.23174 -6.41455,-0.73815 -13.73958,-1.12536 C 515.29958,511.43739 510,510.20774 510,507.96482 510,507.43417 511.32822,507 512.9516,507 c 1.62338,0 8.62016,-1.8 15.5484,-4 6.92824,-2.2 13.25002,-4 14.0484,-4 1.09285,0 1.4516,-1.35928 1.4516,-5.5 0,-6.35858 1.24877,-8.06029 8.71585,-11.87717 5.38064,-2.75037 9.28415,-6.08774 9.28415,-7.93765 0,-0.6803 -1.94637,-4.37527 -4.32526,-8.21104 -6.65771,-10.73504 -13.31018,-23.36103 -15.72048,-29.83657 -2.58386,-6.94182 -2.20386,-12.27202 1.59425,-22.36268 1.34832,-3.58216 2.45149,-8.18753 2.45149,-10.23418 0,-3.69205 -5.10532,-20.54603 -6.70968,-22.15039 -1.16197,-1.16197 -60.4698,-2.22841 -67.6094,-1.21571 l -5.81909,0.82539 -3.77866,10 c -6.15702,16.29417 -9.40954,21.63569 -24.66095,40.5 -6.21721,7.69002 -10.11544,18.8491 -11.96193,34.2423 l -0.68881,5.74231 -2.90624,-4.01194 c -1.59842,-2.20656 -4.08173,-6.40874 -5.51845,-9.33816 l -2.61223,-5.32623 -10.61698,6.1654 c -5.83933,3.39096 -10.76058,6.91108 -10.9361,7.82248 -0.43215,2.244 3.99221,6.4927 7.4824,7.18534 1.55987,0.30955 5.28029,1.81002 8.2676,3.33436 7.41902,3.78572 10.78331,9.03552 15.91917,24.84103 3.989,12.27606 8.32799,20.59495 12.77212,24.48725 8.87593,7.77381 52.03765,26.29202 70.79203,30.37278 8.15661,1.7748 19.84552,1.81898 23.98199,0.0906 z m -2.36161,-75.54183 C 527.77186,478.7052 527.67558,475 528.87756,475 c 0.48265,0 1.43775,0.675 2.12244,1.5 0.90071,1.08529 3.28457,1.5 8.62244,1.5 4.05766,0 7.37756,0.37622 7.37756,0.83605 0,1.0067 -10.95627,4.16395 -14.44972,4.16395 -1.42836,0 -2.91886,-0.82018 -3.5151,-1.93426 z M 496.2979,435.94323 c -11.17028,-3.00184 -17.2173,-5.52823 -24.59422,-10.27524 l -6.79631,-4.37339 6.19283,-0.64728 c 3.40606,-0.35601 10.4841,-2.0219 15.72898,-3.70198 5.24489,-1.68009 12.38996,-3.3212 15.87795,-3.64691 6.24236,-0.58292 6.44297,-0.52326 12.79354,3.80468 C 521.62721,421.27838 523.23276,423 521,423 c -0.55,0 -1.9,0.9 -3,2 -1.51515,1.51515 -2,3.33333 -2,7.5 0,8.9812 -1.8147,7.03603 -5.01655,-5.3772 -1.5508,-6.01233 -3.05597,-4.07222 -3.28683,4.23664 -0.21522,7.74542 0.0177,7.65176 -11.39872,4.58379 z M 501,426.96862 c 0,-2.52394 -2.52254,-3.60977 -4.52507,-1.94782 -1.14005,0.94616 -1.22752,1.57239 -0.36482,2.61188 1.76608,2.12799 4.88989,1.70377 4.88989,-0.66406 z m 20,-13.41244 c -1.925,-0.71659 -7.15586,-3.15248 -11.62413,-5.4131 -14.14075,-7.15416 -21.27203,-7.46047 -38.36213,-1.64775 -4.04326,1.3752 -7.52997,2.32178 -7.74824,2.1035 -0.78738,-0.78737 6.38734,-5.51815 13.61984,-8.98048 15.081,-7.21955 22.071,-7.12064 41.37841,0.58552 l 10.76374,4.29613 -0.64115,3 c -0.9487,4.43909 -2.23455,7.5093 -3.11159,7.42954 -0.42611,-0.0388 -2.34975,-0.65677 -4.27475,-1.37336 z m -125.2,71.05822 1.99756,-3.38561 -2.32472,-1.05921 c -1.2786,-0.58257 -4.17613,-3.51138 -6.43895,-6.50847 -4.07285,-5.39444 -4.14903,-5.43857 -7.57406,-4.3874 C 379.55692,469.85773 378,470.76227 378,471.2838 378,474.02381 390.64921,488 393.12907,488 c 0.37036,0 1.57228,-1.52352 2.67093,-3.3856 z"
         id="path110" /><path
         style="display:inline;fill:#dca542;fill-opacity:1"
         d="m 539.46512,673.26228 c -4.28443,-10.25408 -15.26399,-24.30395 -25.33633,-32.42133 -7.07277,-5.7 -19.27248,-12.56908 -27.44279,-15.45174 l -3.87127,-1.36586 6.0306,6.73833 c 11.36265,12.69613 28.65475,29.85279 34.65467,34.38323 6.73373,5.08453 16.51436,11.85509 17.12563,11.85509 0.22067,0 -0.30156,-1.68197 -1.16051,-3.73772 z M 412.07692,506.07692 C 414.51547,503.63837 415,502.33837 415,498.23421 c 0,-9.18477 -6.85309,-17.709 -11.75258,-14.61848 -4.03741,2.54673 -5.71012,6.3461 -5.72896,13.01264 -0.0173,6.12246 0.1859,6.71389 3.24732,9.45139 4.17351,3.73194 7.57722,3.73108 11.31114,-0.003 z m -7.86442,-7.26442 c -1.68876,-1.68876 -1.51395,-5.31743 0.32988,-6.84767 2.1888,-1.81654 3.67636,0.034 3.28046,4.081 -0.35295,3.60789 -1.72086,4.65615 -3.61034,2.76667 z M 270.40698,406.04893 c 3.08553,-1.62308 8.15449,-4.77308 11.26433,-7 6.2063,-4.44423 7.32869,-4.82428 7.32869,-2.48154 0,1.01906 0.6122,1.39017 1.75,1.0608 0.9625,-0.27862 8.5,-2.39239 16.75,-4.69728 18.77391,-5.24506 24.94755,-8.44442 34.47836,-17.86768 7.23722,-7.15556 7.71071,-7.44218 12.52164,-7.57992 2.75,-0.0787 6.53984,-0.94623 8.42187,-1.92779 l 3.42187,-1.78464 -5.92187,-3.28066 c -3.25703,-1.80436 -7.09564,-4.20926 -8.53024,-5.34421 C 347.7879,351.89945 339.37954,349 334.06831,349 c -7.62229,0 -22.08797,5.11884 -22.06148,7.8067 0.004,0.38132 1.5288,1.72957 3.38897,2.99612 l 3.38214,2.30283 3.32846,-2.02416 c 5.25561,-3.19613 10.88171,-3.62268 16.28091,-1.23436 2.53698,1.12222 4.61269,2.45413 4.61269,2.9598 0,0.50566 -2.23072,3.00597 -4.95716,5.55623 -4.49786,4.20722 -5.41003,4.63684 -9.84496,4.63684 -5.14304,0 -6.64894,-0.81731 -22.97552,-12.46968 l -6.27763,-4.48039 3.77763,-1.58554 c 9.68531,-4.0651 47.3385,-13.76622 71.77764,-18.49309 15.5766,-3.01273 33.2045,-3.6901 41.37011,-1.5897 8.35468,2.14904 12.35091,4.11302 19.73169,9.69729 l 6.10181,4.6166 3.5834,-1.83839 c 1.97087,-1.01112 3.89492,-2.34245 4.27568,-2.95853 1.38595,-2.24252 -13.37881,-12.65448 -23.83473,-16.80802 -7.2895,-2.89569 -7.69292,-2.94303 -17.34552,-2.03533 C 366.57137,327.987 316.9296,338.41756 281,350.82037 c -18.65821,6.44078 -19,6.63348 -19,10.7121 0,3.1202 0.24738,3.44946 2.25,2.99467 9.25602,-2.10199 12.17795,-2.47854 19.25,-2.48073 9.76218,-0.003 13.42218,1.48914 24.26216,9.89165 4.30124,3.33407 8.36435,6.06194 9.02914,6.06194 3.2141,0 0.55606,2.0514 -5.0413,3.89074 -7.0721,2.32395 -14.75,3.71235 -14.75,2.66724 0,-0.38369 1.39338,-2.72283 3.09639,-5.19808 1.70302,-2.47525 2.94052,-4.61455 2.75,-4.75401 -0.19051,-0.13946 -1.8935,-1.32373 -3.78441,-2.6317 l -3.43802,-2.37814 -4.56198,5.42818 c -8.61314,10.24856 -19.45015,21.01636 -24.25362,24.09875 -4.19473,2.69174 -4.80836,3.51887 -4.80836,6.48127 0,4.23268 1.0957,4.29064 8.40698,0.44468 z m 11.66232,-31.41288 c 2.16189,-3.22518 3.9307,-6.3208 3.9307,-6.87917 0,-1.4958 -11.69402,0.031 -16.52108,2.15708 -5.94074,2.61656 -7.47892,4.57761 -7.47892,9.53502 0,4.62369 0.82379,5.71641 5.5,7.29558 2.72118,0.91895 3.35496,0.67585 6.8193,-2.61573 2.10062,-1.99585 5.58812,-6.26761 7.75,-9.49278 z m 103.5709,-1.08351 C 393.49386,369.86816 403.63083,360.96903 414.74698,348 l 6.42848,-7.5 -5.24927,-1.17833 -5.24928,-1.17832 -7.06527,7.67832 c -10.54884,11.46418 -14.62525,15.12376 -19.76215,17.7414 -5.0482,2.57244 -26.77786,9.43693 -29.87278,9.43693 -2.01941,0 -8.44033,5.12924 -9.94841,7.94712 -0.79669,1.48862 1.05194,1.35802 16.78822,-1.18604 14.15427,-2.2883 19.1085,-3.52738 24.82368,-6.20854 z m 25.8598,-0.5148 c 11.72581,-1.29133 35.02253,-2.85114 60,-4.01726 19.33577,-0.90272 70.31899,0.12683 78.75,1.59028 l 3.75,0.65092 v -6.00127 -6.00127 l -36.25,-0.63613 c -19.9375,-0.34987 -42.1,-0.2642 -49.25,0.19038 -7.15,0.45458 -13.36091,0.64151 -13.80202,0.41539 -0.44111,-0.22611 1.13389,-1.64451 3.5,-3.152 5.41827,-3.45206 12.29185,-10.98695 11.10518,-12.17362 -0.48618,-0.48618 -2.89078,-1.15789 -5.34356,-1.49268 -4.13069,-0.56382 -4.8408,-0.3049 -9.62811,3.51059 -8.72721,6.95558 -13.1126,8.39336 -27.11001,8.8882 -11.07239,0.39143 -12.42306,0.64043 -13.75,2.53491 -0.80931,1.15546 -1.47148,2.4507 -1.47148,2.87833 0,0.42762 3.12344,0.77749 6.94098,0.77749 12.83975,0 8.36398,3.18076 -6.44098,4.57736 -6.941,0.65478 -14.24312,3.99835 -17.62107,8.06852 -1.12369,1.35397 -0.74758,1.4677 3.17314,0.95951 2.44636,-0.31708 8.49793,-1.02253 13.44793,-1.56765 z m -22,-19.47545 c 3.61371,-2.92443 3.0156,-4.50193 -3.43595,-9.06229 -3.77969,-2.67172 -5.02759,-2.99603 -11.40408,-2.96375 -7.56681,0.0383 -13.64699,2.15935 -18.64431,6.50399 l -2.48435,2.15986 2.79011,2.39995 c 3.52106,3.02869 5.45079,3.01912 9.60759,-0.0477 6.13374,-4.52533 12.23055,-4.16184 16.26713,0.96985 2.42806,3.08677 3.53157,3.09282 7.30386,0.0401 z m 135.84007,-5.70222 -6.13992,-6.13992 -4.60008,1.35824 c -2.53004,0.74703 -4.60007,1.629 -4.60007,1.95993 0,0.33092 1.61007,2.48268 3.57792,4.78168 l 3.57793,4.18 h 7.16207 7.16208 z m -18.22356,-3.87219 c 5.16092,-4.56404 9.25806,-8.71721 9.10476,-9.22926 C 515.01307,330.72306 492.86947,305 490.60366,305 c -1.25159,0 -10.03896,8.48683 -18.13977,17.51935 -14.36515,16.01736 -13.41724,14.00326 -7.51335,15.96422 3.50542,1.16431 7.28286,3.71062 12.20292,8.22575 l 7.12589,6.53943 6.72684,-0.48131 6.72683,-0.4813 z m -23.8804,-5.15166 -6.14473,-6.16378 2.94559,-3.58622 c 1.62008,-1.97242 4.49841,-5.37669 6.39629,-7.56504 l 3.4507,-3.97882 2.60479,2.44707 c 1.43264,1.3459 4.45761,4.84867 6.72216,7.78395 l 4.11737,5.33688 -5.88283,5.94487 C 494.20988,342.32481 491.07171,345 490.47172,345 c -0.59999,0 -3.85601,-2.7737 -7.23561,-6.16378 z M 554,336.04531 v -16.95468 l -3.25,-0.58921 c -1.7875,-0.32406 -11.20125,-0.45695 -20.91944,-0.29531 l -17.66943,0.29389 2.71513,4 2.71514,4 10.62593,0.28304 10.62594,0.28303 -2.53987,2.71697 c -1.39693,1.49433 -4.14751,4.66807 -6.1124,7.05276 -3.94352,4.78604 -3.74412,6.38631 1.14135,9.16017 2.48458,1.41068 2.73389,1.35368 4.37323,-1 C 538.40039,341.12689 545.15513,334 546.12736,334 c 0.47995,0 0.87264,4.0187 0.87264,8.93045 0,9.5726 -0.16414,9.28905 5.75,9.93337 0.9562,0.10417 1.25,-3.84879 1.25,-16.81851 z m -96.4253,-8.86943 c 2.94276,-0.48812 4.94912,-1.67611 7.22238,-4.27643 l 3.14767,-3.60056 -4.72237,0.32672 c -20.44253,1.41433 -34.19709,2.73301 -33.69927,3.23084 0.32587,0.32586 2.92898,1.57726 5.78469,2.78088 5.39986,2.27592 14.16871,2.88181 22.2669,1.53855 z m 5.03573,-14.82244 c 4.63131,-0.61241 5.48694,-1.25431 16.19955,-12.15298 l 11.30998,-11.50643 8.0216,8.65298 c 6.46013,6.96861 8.57617,8.65299 10.87048,8.65299 2.19302,0 2.92242,0.51797 3.16841,2.25 0.29122,2.0505 0.93176,2.27653 7.2242,2.54922 6.68136,0.28953 6.85922,0.23619 5.5,-1.64941 -1.51008,-2.09488 -17.71519,-20.22016 -28.29688,-31.64981 l -6.48066,-7 -16.63161,16.5 c -9.14739,9.075 -18.44289,18.6375 -20.65668,21.25 l -4.02506,4.75 h 4.45355 c 2.44945,0 6.65385,-0.29095 9.34312,-0.64656 z"
         id="path111" /><path
         style="display:inline;fill:#8a1b24;fill-opacity:1"
         d="m 657.41912,700.63956 c 12.20499,-16.28878 10.80451,-37.44953 -3.40415,-51.43584 -10.35046,-10.18848 -19.98256,-15.25404 -44.3553,-23.32665 C 569.58276,612.60301 557.9434,607.74119 546.5,599.49493 539.74188,594.62495 530.12491,584.97673 524.5763,577.5 l -3.71059,-5 -9.18285,-1.05954 c -5.05057,-0.58275 -9.52327,-0.8919 -9.93932,-0.68699 -1.42386,0.70124 11.19572,23.73687 17.81897,32.52652 9.39865,12.47287 25.27012,25.54357 40.18749,33.09578 2.8875,1.46186 5.25,2.82339 5.25,3.02563 0,0.67073 -17.37517,-5.07479 -25.1577,-8.31901 -16.68769,-6.95641 -35.94323,-22.78506 -47.02342,-38.65471 -2.84467,-4.07428 -5.29946,-7.28043 -5.45511,-7.12478 -0.56758,0.56758 2.61183,12.58661 5.02675,19.00246 4.72802,12.56119 8.0495,16.44615 24.78696,28.99195 26.30332,19.71603 35.6474,22.89406 78.61487,26.73782 14.90553,1.33342 24.32713,3.38356 31.99865,6.96292 13.92742,6.49823 20.48726,15.22677 20.62785,27.4475 0.0446,3.87995 -0.30939,9.04677 -0.78672,11.48183 l -0.86786,4.42738 4.15121,-3.28782 c 2.28316,-1.8083 5.2098,-4.70062 6.50364,-6.42738 z M 693.8987,664 c 0.10423,-10.93902 -3.65378,-20.54619 -12.04493,-30.79229 -8.60461,-10.50673 -19.55154,-17.84801 -39.09881,-26.22062 -41.98437,-17.98302 -63.81771,-31.05414 -84.92103,-50.84029 l -7.66606,-7.18759 -0.71822,3.27005 c -0.39503,1.79853 -1.64983,5.18757 -2.78845,7.5312 -1.85864,3.82564 -1.94434,4.74552 -0.83845,9.00034 4.75823,18.30704 18.69883,32.53537 39.38102,40.19383 5.95479,2.20502 22.72758,6.22551 33.29623,7.98122 35.17795,5.84389 57.62589,18.9723 67.48783,39.46942 2.60264,5.40934 4.142,10.25108 4.64018,14.59473 l 0.74549,6.5 1.2364,-4 c 0.68002,-2.2 1.25998,-6.475 1.2888,-9.5 z m -480.5426,0.80711 c 2.27914,-1.75609 4.30184,-3.30154 4.49489,-3.43432 0.19304,-0.13279 -0.77707,-1.73349 -2.15581,-3.55711 -6.32997,-8.37248 -11.00311,-20.45751 -12.69831,-32.83857 -1.29986,-9.49363 -0.63645,-17.70468 2.1392,-26.47711 1.9448,-6.14649 4.76508,-11.90328 4.82849,-9.85595 0.0195,0.62922 0.50535,5.72323 1.07969,11.32003 1.81409,17.67778 9.55641,34.12153 20.88233,44.35149 4.04773,3.65605 4.32438,3.75002 6.6173,2.24763 1.31613,-0.86236 5.78218,-3.62557 9.92454,-6.14046 4.14237,-2.51489 7.53158,-4.88518 7.53158,-5.26731 0,-0.38213 -1.91633,-3.25683 -4.25851,-6.38822 -9.71866,-12.9934 -17.14124,-31.93604 -18.91326,-48.26721 -1.40463,-12.9452 0.56788,-27.3345 5.5741,-40.66255 1.91755,-5.1051 3.3283,-9.44015 3.13499,-9.63346 -1.00226,-1.00227 -12.89837,6.76115 -22.53732,14.70789 -26.15866,21.56627 -37.91703,39.97559 -39.66612,62.10269 -1.07529,13.60319 2.80257,29.01851 10.23392,40.68193 3.32105,5.21236 17.45694,20.3035 19.01832,20.3035 0.34434,0 2.49083,-1.4368 4.76998,-3.19289 z m 69.67714,-43.32396 C 285.76496,620.09889 288,618.7389 288,618.46096 c 0,-0.27795 -1.80842,-4.10213 -4.01872,-8.4982 -5.03857,-10.02121 -7.97306,-22.00621 -7.94841,-32.46276 l 0.0189,-8 5.0227,10.32405 c 4.09096,8.40888 6.50432,11.86734 13.00957,18.64336 11.79884,12.28995 10.34281,12.13743 32.35457,3.38913 10.18047,-4.0461 18.52152,-7.63217 18.53568,-7.96904 0.0142,-0.33688 -3.09969,-2.9366 -6.91967,-5.77716 -9.42366,-7.0075 -14.33057,-12.93259 -19.62493,-23.69707 -5.86897,-11.9328 -7.77312,-20.99225 -7.12802,-33.91327 0.43803,-8.77363 2.37245,-20.15924 3.27219,-19.2595 0.17442,0.17441 0.81065,3.45415 1.41386,7.28831 4.27627,27.18129 20.70454,46.24796 47.91438,55.60952 8.50142,2.92492 8.75785,2.26343 1.43068,-3.69063 -15.35163,-12.47476 -23.31781,-25.57311 -26.29769,-43.23987 -2.33242,-13.82812 1.86482,-29.52366 12.02244,-44.95783 2.71717,-4.12865 2.20894,-4.13715 -11.17746,-0.18692 -53.17725,15.69223 -81.05262,35.62048 -90.13351,64.43692 -1.76728,5.60813 -2.20362,9.38607 -2.19446,19 0.006,6.6 0.59932,14.475 1.31783,17.5 1.73776,7.31607 9.1815,22.39864 13.81891,28 4.32045,5.21852 12.92882,13 14.38143,13 0.54794,0 3.23129,-1.13258 5.963,-2.51685 z M 388.3571,560.9036 c 0.62358,-5.59026 0.61729,-5.60683 -5.74924,-15.12884 C 372.77489,531.0682 369.24127,519.77749 368.1254,499.5 l -0.66036,-12 -2.74484,5.24107 c -5.32347,10.16477 -7.53357,25.69028 -5.38194,37.80706 2.4425,13.7548 8.03674,22.74636 20.61704,33.13756 7.21682,5.96102 7.43457,5.88892 8.4018,-2.78209 z M 205.00071,539.49825 c 7.70013,-18.9719 29.75156,-42.25449 51.02068,-53.86924 17.3101,-9.45278 47.44723,-19.44184 91.47861,-30.32091 8.49738,-2.09949 28.60246,-9.37775 35.98705,-13.0277 17.75888,-8.77761 32.35262,-20.75384 42.99123,-35.2804 l 4.76032,-6.5 -0.70981,4.5 c -0.39039,2.475 -2.41582,8.41298 -4.50096,13.19552 -3.55702,8.15849 -3.64665,8.60082 -1.45123,7.16234 2.54259,-1.66598 11.26527,-12.13235 16.17307,-19.40613 3.43591,-5.09232 9.74496,-17.25648 10.73714,-20.70173 0.74904,-2.60096 -0.10046,-2.69624 -14.23111,-1.59623 l -8.24429,0.64178 -4.23714,5.78746 c -2.33043,3.18309 -4.36853,5.65606 -4.52911,5.49549 -0.16058,-0.16058 0.83815,-2.26893 2.2194,-4.68523 1.38124,-2.4163 2.51677,-4.73077 2.52339,-5.14327 0.0138,-0.85984 -10.46815,-0.99669 -13.52071,-0.17652 -1.11801,0.30039 -3.27647,2.51206 -4.79658,4.91483 -6.86538,10.85182 -22.21718,23.70642 -35.53346,29.75339 -8.86872,4.02732 -27.25273,8.58441 -37.40815,9.27285 l -8.22905,0.55786 10.5,-3.8906 c 20.31829,-7.52862 33.68296,-15.57045 45.13546,-27.15906 4.19951,-4.24941 8.17849,-8.74086 8.84219,-9.98099 1.19938,-2.24106 1.17419,-2.25073 -4.13546,-1.58719 -29.72188,3.7143 -60.84168,11.31924 -96.60807,23.60872 -12.52715,4.30438 -16.31819,6.83455 -41.39099,27.62467 -19.87869,16.48322 -32.38572,30.79305 -40.17706,45.96834 -3.93319,7.6607 -6.86957,20.74005 -7.39997,32.9612 -0.55417,12.76869 0.35475,27.3825 1.70308,27.3825 0.43919,0 1.80338,-2.47579 3.03153,-5.50175 z m 40.49967,-27.4511 C 262.48444,500.5395 301.3566,481.4217 324,473.44007 c 9.09332,-3.20532 7.0171,-2.97308 -8.80686,0.98515 C 290.5767,480.5828 266.66183,490.7851 251,501.81059 c -6.89346,4.85281 -19.5513,16.50086 -21.13544,19.44934 -1.14735,2.13551 -0.88436,1.98056 15.63582,-9.21278 z M 370.5201,463.03897 c 10.92258,-3.06874 21.94496,-8.13981 28.02836,-12.89503 3.06501,-2.39583 5.39326,-4.53555 5.17389,-4.75492 -0.21937,-0.21938 -6.43415,2.46694 -13.81061,5.9696 -7.37646,3.50265 -17.23674,7.82466 -21.91174,9.60446 -4.675,1.7798 -8.6875,3.41621 -8.91667,3.63646 -1.09632,1.05368 5.18022,0.19723 11.43677,-1.56057 z M 285.76696,341.48846 c 6.84854,-2.14246 9.33642,-3.54156 14.5,-8.15435 7.54255,-6.73799 18.54433,-13.33225 28.95078,-17.35254 4.24476,-1.63986 8.04892,-2.98157 8.4537,-2.98157 0.40478,0 -2.6182,2.21388 -6.71774,4.91974 C 324.43686,322.22111 313.49365,332 315.19699,332 c 0.33737,0 11.79356,-2.21721 25.4582,-4.92713 31.41346,-6.22979 50.32863,-8.86196 90.49374,-12.59281 7.60398,-0.70631 7.79557,-0.82424 23.29792,-14.34013 5.90386,-5.14734 10.35603,-9.70616 9.89372,-10.13071 -0.46232,-0.42455 -6.69057,-1.8378 -13.84057,-3.14056 -11.4776,-2.09127 -15.9277,-2.36437 -38,-2.33203 -26.65086,0.039 -34.52391,0.93536 -52.5,5.97691 -26.13918,7.33096 -53.11229,20.62466 -67.5,33.26738 -4.70322,4.13279 -16.24872,16.90975 -17.67814,19.56371 -0.82674,1.53498 -0.68534,1.75107 0.84231,1.28732 1.00971,-0.30651 5.55596,-1.72109 10.10279,-3.14349 z"
         id="path112" /><path
         style="display:inline;fill:#1e5d3b;fill-opacity:1"
         d="m 516.84195,686.11884 c 1.00113,-0.63452 0.74715,-0.98397 -1,-1.37595 C 510.57835,683.562 493.87466,676.92667 484.5,672.2927 479,669.574 461.225,660.59683 445,652.34343 c -16.225,-8.2534 -33.55,-16.45749 -38.5,-18.2313 -33.72423,-12.08494 -64.41335,-16.75135 -83.5,-12.69652 -20.27769,4.30785 -54.9753,23.77532 -76.5,42.92117 l -4,3.55793 11,-4.50771 c 33.50962,-13.73197 60.20687,-19.31753 86,-17.99277 27.88224,1.43206 51.23339,7.429 99.39264,25.52562 20.12602,7.56268 36.2044,12.46396 46.10736,14.05523 4.125,0.66283 8.175,1.33739 9,1.49903 3.56904,0.69926 21.62113,0.41849 22.84195,-0.35527 z m 2.95248,-10.214 c -0.92889,-0.51984 -2.95014,-2.00518 -4.49167,-3.30075 -10.43451,-8.7697 -42.13378,-32.59088 -53.80276,-40.43139 -23.05265,-15.48932 -49.90807,-27.32323 -69.94238,-30.82029 -10.58768,-1.84812 -23.48514,-1.36561 -31.05762,1.1619 -6.9026,2.30393 -16.5,6.62023 -16.5,7.42066 0,0.36402 5.0625,1.17863 11.25,1.81024 37.3258,3.81018 64.61187,13.65525 116.25,41.9441 26.49953,14.5172 37.35695,20.02568 44,22.32325 5.00568,1.73127 7.47007,1.66945 4.29443,-0.10772 z"
         id="path113" /><path
         style="display:inline;fill:#ffffff;fill-opacity:1"
         d="m 885.36615,575.51056 c 7.2171,-1.52906 16.8287,-6.27705 24.38174,-12.04423 4.62618,-3.53235 6.25211,-3.6773 6.25211,-0.55735 0,3.05565 5.90923,10.15515 9.80874,11.78447 5.28635,2.20877 13.92564,1.2305 19.94165,-2.2581 8.73146,-5.06326 14.16135,-9.76505 14.20701,-12.30198 0.0359,-1.99553 -0.31021,-2.25994 -2.2074,-1.68622 -5.29427,1.60103 -10.27933,1.68788 -12.25,0.21343 -1.9227,-1.43856 -2.0212,-2.99731 -2.54842,-40.32849 -0.48512,-34.34963 -0.76223,-39.43764 -2.4006,-44.07803 C 935.63208,460.32217 923.75976,454 902.51615,454 c -13.85002,0 -26.74126,3.0843 -42.68169,10.21184 l -7.04416,3.1497 0.64053,4.82858 c 1.23608,9.31799 0.75346,9.1291 11.93288,4.67042 11.89363,-4.74353 23.13493,-6.56271 30.62587,-4.95619 12.94399,2.77598 16.95864,7.7837 17.77932,22.1772 0.55976,9.81721 0.50557,9.8772 -8.94654,9.9048 -6.7235,0.0196 -19.07836,1.83122 -28.2154,4.13723 -15.26749,3.85321 -25.48123,11.19195 -30.44663,21.87642 -2.08799,4.49291 -2.56557,7.05641 -2.60817,14 -0.0646,10.52573 2.08809,16.80714 7.82404,22.83021 5.01568,5.26672 8.43423,7.18839 15.6238,8.78261 7.35983,1.63196 10.25686,1.61583 18.36615,-0.10226 z m -1.89873,-19.50828 c -5.86088,-2.90116 -7.95957,-6.98643 -7.96388,-15.50228 -0.003,-5.89171 0.44573,-7.76434 2.83409,-11.8276 C 883.39064,520.07583 892.62515,516 907.04922,516 H 914 v 15.56456 15.56456 l -3.11314,2.68544 c -1.71223,1.47699 -5.19973,3.91927 -7.75,5.42728 -5.82916,3.44686 -13.63288,3.74856 -19.66944,0.76044 z M 1317,574.43134 c 9.4147,-2.42487 20.1316,-7.6075 29.1327,-14.08833 4.327,-3.11547 7.8673,-5.975 7.8673,-6.35452 0,-1.10332 -2.1587,-6.98849 -2.5634,-6.98849 -0.2023,0 -3.1957,1.55359 -6.6522,3.45241 -19.6694,10.8056 -39.0939,13.03606 -52.7214,6.05386 C 1280.3582,550.5092 1272,535.69685 1272,520.95078 V 517 h 41.1486 41.1486 l -0.5779,-11.25 c -0.6899,-13.43073 -3.1027,-21.96881 -8.5687,-30.32213 -4.7188,-7.21125 -7.8781,-10.2294 -15.4939,-14.8018 -14.8425,-8.91114 -39.1993,-8.84922 -57.4053,0.14594 -13.8466,6.84124 -25.09,19.9718 -30.0236,35.0627 -4.4624,13.64976 -4.2297,35.07894 0.523,48.16529 5.9167,16.29112 19.5362,27.40639 38.7492,31.62431 7.7167,1.69408 26.7778,1.05354 35.5,-1.19297 z m -44.5205,-76.16422 c 0.3929,-3.17192 1.9082,-8.85245 3.3674,-12.62341 4.7729,-12.33435 12.4037,-18.59979 22.6531,-18.59979 13.7121,0 23.5254,12.13153 24.6363,30.45608 l 0.3637,6 -25.8674,0.26712 -25.8673,0.26712 z M 728.36629,571.75 c 1.93069,-4.50405 44.35167,-94.61879 54.16396,-115.06033 2.062,-4.29568 4.08537,-7.44568 4.49638,-7 0.41101,0.44568 1.25429,11.16033 1.87397,23.81033 0.61968,12.65 2.01402,38.975 3.09855,58.5 1.08452,19.525 1.97838,36.9625 1.98636,38.75 L 794,574 h 18 18 l -0.0337,-3.75 c -0.0185,-2.0625 -0.47048,-8.475 -1.00435,-14.25 -0.53387,-5.775 -2.08488,-26.7 -3.44669,-46.5 C 819.28613,418.93157 817.7915,399.35024 816.94728,397.25 816.07775,395.08681 815.566,395 803.68264,395 h -12.36021 l -3.59096,7.75 c -1.97502,4.2625 -5.71098,12.25 -8.30213,17.75 -2.59114,5.5 -9.99978,21.25 -16.46363,35 -26.08085,55.47958 -29.19569,62.0267 -29.81789,62.67469 -0.56129,0.58457 -14.9468,-29.85023 -49.00352,-103.67469 l -8.76509,-19 -14.11428,-0.277 -14.11427,-0.27699 -0.58363,5.27699 c -0.321,2.90235 -1.25151,13.602 -2.0678,23.777 -3.65216,45.52413 -7.69222,94.27171 -9.48941,114.5 -1.07504,12.1 -2.21928,25.0375 -2.54277,28.75 L 631.8789,574 h 11.06055 c 8.17704,0 11.06286,-0.32588 11.06942,-1.25 0.005,-0.6875 0.91234,-14.975 2.01658,-31.75 4.14937,-63.03491 4.955,-76.70633 4.96464,-84.25 0.005,-4.2625 0.389,-7.75 0.85233,-7.75 0.46334,0 4.01566,6.6375 7.89406,14.75 3.87839,8.1125 15.5872,32.525 26.01956,54.25 10.43236,21.725 20.80084,43.4375 23.04108,48.25 3.18069,6.83281 4.52263,8.75 6.12459,8.75 1.36202,0 2.51964,-1.09223 3.44458,-3.25 z M 1198.9563,555 c 4.2596,-10.725 13.2642,-33.45 20.0102,-50.5 6.746,-17.05 18.9633,-47.79145 27.1495,-68.31434 8.1862,-20.52288 14.884,-37.73538 14.884,-38.25 0,-0.51461 -4.165,-0.93566 -9.2556,-0.93566 h -9.2556 l -2.6612,7.25 c -1.4637,3.9875 -4.9015,13.1 -7.6395,20.25 -13.3177,34.77719 -30.0556,78.9127 -36.4068,96 -7.3862,19.87169 -7.4929,20.12178 -8.2543,19.36033 -0.2602,-0.26016 -7.0232,-19.12266 -15.0289,-41.91667 -8.0058,-22.79401 -15.8542,-45.04366 -17.4409,-49.44366 -1.5867,-4.4 -5.6361,-15.875 -8.9987,-25.5 -3.3627,-9.625 -6.8136,-19.4125 -7.6689,-21.75 l -1.555,-4.25 h -18.5257 -18.5257 l 0.6802,2.75 c 0.3741,1.5125 7.8924,22.55 16.7074,46.75 30.4807,83.67951 42.5537,117.01624 43.8205,121 2.548,8.01289 1.5734,7.58726 16.6646,7.27789 L 1191.2117,574.5 Z m -110.6299,12.25 c -0.2438,-3.7125 -0.6505,-7.7625 -0.9039,-9 L 1086.9619,556 H 1049.4809 1012 v -31 -31 h 30 30 v -9.5 -9.5 h -30 -30 v -29 -29 h 33.5 33.5 v -10 -10 h -52 -52 v 88.5 88.5 h 56.8848 56.8849 z"
         id="path117" /></g><g
       id="g122"
       style="display:inline"><rect
         style="display:none;fill:#ffffff;fill-opacity:1;stroke-width:14.3462;stroke-linecap:square"
         id="rect117"
         width="1536"
         height="1024"
         x="0"
         y="0" /><path
         id="path138"
         style="display:inline;fill:#000000;fill-opacity:1;stroke:#000000;stroke-width:35.7732;stroke-dasharray:none;stroke-opacity:1"
         d="m 516.84195,686.11884 c 1.00113,-0.63452 0.74715,-0.98397 -1,-1.37595 C 510.57835,683.562 493.87466,676.92667 484.5,672.2927 479,669.574 461.225,660.59683 445,652.34343 c -16.225,-8.2534 -33.55,-16.45749 -38.5,-18.2313 -33.72423,-12.08494 -64.41335,-16.75135 -83.5,-12.69652 -20.27769,4.30785 -54.9753,23.77532 -76.5,42.92117 l -4,3.55793 11,-4.50771 c 33.50962,-13.73197 60.20687,-19.31753 86,-17.99277 27.88224,1.43206 51.23339,7.429 99.39264,25.52562 20.12602,7.56268 36.2044,12.46396 46.10736,14.05523 4.125,0.66283 8.175,1.33739 9,1.49903 3.56904,0.69926 21.62113,0.41849 22.84195,-0.35527 z m 2.95248,-10.214 c -0.92889,-0.51984 -2.95014,-2.00518 -4.49167,-3.30075 -10.43451,-8.7697 -42.13378,-32.59088 -53.80276,-40.43139 -23.05265,-15.48932 -49.90807,-27.32323 -69.94238,-30.82029 -10.58768,-1.84812 -23.48514,-1.36561 -31.05762,1.1619 -6.9026,2.30393 -16.5,6.62023 -16.5,7.42066 0,0.36402 5.0625,1.17863 11.25,1.81024 37.3258,3.81018 64.61187,13.65525 116.25,41.9441 26.49953,14.5172 37.35695,20.02568 44,22.32325 5.00568,1.73127 7.47007,1.66945 4.29443,-0.10772 z m 137.62469,24.73472 c 12.20499,-16.28878 10.80451,-37.44953 -3.40415,-51.43584 -10.35046,-10.18848 -19.98256,-15.25404 -44.3553,-23.32665 C 569.58276,612.60301 557.9434,607.74119 546.5,599.49493 539.74188,594.62495 530.12491,584.97673 524.5763,577.5 l -3.71059,-5 -9.18285,-1.05954 c -5.05057,-0.58275 -9.52327,-0.8919 -9.93932,-0.68699 -1.42386,0.70124 11.19572,23.73687 17.81897,32.52652 9.39865,12.47287 25.27012,25.54357 40.18749,33.09578 2.8875,1.46186 5.25,2.82339 5.25,3.02563 0,0.67073 -17.37517,-5.07479 -25.1577,-8.31901 -16.68769,-6.95641 -35.94323,-22.78506 -47.02342,-38.65471 -2.84467,-4.07428 -5.29946,-7.28043 -5.45511,-7.12478 -0.56758,0.56758 2.61183,12.58661 5.02675,19.00246 4.72802,12.56119 8.0495,16.44615 24.78696,28.99195 26.30332,19.71603 35.6474,22.89406 78.61487,26.73782 14.90553,1.33342 24.32713,3.38356 31.99865,6.96292 13.92742,6.49823 20.48726,15.22677 20.62785,27.4475 0.0446,3.87995 -0.30939,9.04677 -0.78672,11.48183 l -0.86786,4.42738 4.15121,-3.28782 c 2.28316,-1.8083 5.2098,-4.70062 6.50364,-6.42738 z M 693.8987,664 c 0.10423,-10.93902 -3.65378,-20.54619 -12.04493,-30.79229 -8.60461,-10.50673 -19.55154,-17.84801 -39.09881,-26.22062 -41.98437,-17.98302 -63.81771,-31.05414 -84.92103,-50.84029 l -7.66606,-7.18759 -0.71822,3.27005 c -0.39503,1.79853 -1.64983,5.18757 -2.78845,7.5312 -1.85864,3.82564 -1.94434,4.74552 -0.83845,9.00034 4.75823,18.30704 18.69883,32.53537 39.38102,40.19383 5.95479,2.20502 22.72758,6.22551 33.29623,7.98122 35.17795,5.84389 57.62589,18.9723 67.48783,39.46942 2.60264,5.40934 4.142,10.25108 4.64018,14.59473 l 0.74549,6.5 1.2364,-4 c 0.68002,-2.2 1.25998,-6.475 1.2888,-9.5 z m -480.5426,0.80711 c 2.27914,-1.75609 4.30184,-3.30154 4.49489,-3.43432 0.19304,-0.13279 -0.77707,-1.73349 -2.15581,-3.55711 -6.32997,-8.37248 -11.00311,-20.45751 -12.69831,-32.83857 -1.29986,-9.49363 -0.63645,-17.70468 2.1392,-26.47711 1.9448,-6.14649 4.76508,-11.90328 4.82849,-9.85595 0.0195,0.62922 0.50535,5.72323 1.07969,11.32003 1.81409,17.67778 9.55641,34.12153 20.88233,44.35149 4.04773,3.65605 4.32438,3.75002 6.6173,2.24763 1.31613,-0.86236 5.78218,-3.62557 9.92454,-6.14046 4.14237,-2.51489 7.53158,-4.88518 7.53158,-5.26731 0,-0.38213 -1.91633,-3.25683 -4.25851,-6.38822 -9.71866,-12.9934 -17.14124,-31.93604 -18.91326,-48.26721 -1.40463,-12.9452 0.56788,-27.3345 5.5741,-40.66255 1.91755,-5.1051 3.3283,-9.44015 3.13499,-9.63346 -1.00226,-1.00227 -12.89837,6.76115 -22.53732,14.70789 -26.15866,21.56627 -37.91703,39.97559 -39.66612,62.10269 -1.07529,13.60319 2.80257,29.01851 10.23392,40.68193 3.32105,5.21236 17.45694,20.3035 19.01832,20.3035 0.34434,0 2.49083,-1.4368 4.76998,-3.19289 z m 69.67714,-43.32396 C 285.76496,620.09889 288,618.7389 288,618.46096 c 0,-0.27795 -1.80842,-4.10213 -4.01872,-8.4982 -5.03857,-10.02121 -7.97306,-22.00621 -7.94841,-32.46276 l 0.0189,-8 5.0227,10.32405 c 4.09096,8.40888 6.50432,11.86734 13.00957,18.64336 11.79884,12.28995 10.34281,12.13743 32.35457,3.38913 10.18047,-4.0461 18.52152,-7.63217 18.53568,-7.96904 0.0142,-0.33688 -3.09969,-2.9366 -6.91967,-5.77716 -9.42366,-7.0075 -14.33057,-12.93259 -19.62493,-23.69707 -5.86897,-11.9328 -7.77312,-20.99225 -7.12802,-33.91327 0.43803,-8.77363 2.37245,-20.15924 3.27219,-19.2595 0.17442,0.17441 0.81065,3.45415 1.41386,7.28831 4.27627,27.18129 20.70454,46.24796 47.91438,55.60952 8.50142,2.92492 8.75785,2.26343 1.43068,-3.69063 -15.35163,-12.47476 -23.31781,-25.57311 -26.29769,-43.23987 -2.33242,-13.82812 1.86482,-29.52366 12.02244,-44.95783 2.71717,-4.12865 2.20894,-4.13715 -11.17746,-0.18692 -53.17725,15.69223 -81.05262,35.62048 -90.13351,64.43692 -1.76728,5.60813 -2.20362,9.38607 -2.19446,19 0.006,6.6 0.59932,14.475 1.31783,17.5 1.73776,7.31607 9.1815,22.39864 13.81891,28 4.32045,5.21852 12.92882,13 14.38143,13 0.54794,0 3.23129,-1.13258 5.963,-2.51685 z M 388.3571,560.9036 c 0.62358,-5.59026 0.61729,-5.60683 -5.74924,-15.12884 C 372.77489,531.0682 369.24127,519.77749 368.1254,499.5 l -0.66036,-12 -2.74484,5.24107 c -5.32347,10.16477 -7.53357,25.69028 -5.38194,37.80706 2.4425,13.7548 8.03674,22.74636 20.61704,33.13756 7.21682,5.96102 7.43457,5.88892 8.4018,-2.78209 z M 205.00071,539.49825 c 7.70013,-18.9719 29.75156,-42.25449 51.02068,-53.86924 17.3101,-9.45278 47.44723,-19.44184 91.47861,-30.32091 8.49738,-2.09949 28.60246,-9.37775 35.98705,-13.0277 17.75888,-8.77761 32.35262,-20.75384 42.99123,-35.2804 l 4.76032,-6.5 -0.70981,4.5 c -0.39039,2.475 -2.41582,8.41298 -4.50096,13.19552 -3.55702,8.15849 -3.64665,8.60082 -1.45123,7.16234 2.54259,-1.66598 11.26527,-12.13235 16.17307,-19.40613 3.43591,-5.09232 9.74496,-17.25648 10.73714,-20.70173 0.74904,-2.60096 -0.10046,-2.69624 -14.23111,-1.59623 l -8.24429,0.64178 -4.23714,5.78746 c -2.33043,3.18309 -4.36853,5.65606 -4.52911,5.49549 -0.16058,-0.16058 0.83815,-2.26893 2.2194,-4.68523 1.38124,-2.4163 2.51677,-4.73077 2.52339,-5.14327 0.0138,-0.85984 -10.46815,-0.99669 -13.52071,-0.17652 -1.11801,0.30039 -3.27647,2.51206 -4.79658,4.91483 -6.86538,10.85182 -22.21718,23.70642 -35.53346,29.75339 -8.86872,4.02732 -27.25273,8.58441 -37.40815,9.27285 l -8.22905,0.55786 10.5,-3.8906 c 20.31829,-7.52862 33.68296,-15.57045 45.13546,-27.15906 4.19951,-4.24941 8.17849,-8.74086 8.84219,-9.98099 1.19938,-2.24106 1.17419,-2.25073 -4.13546,-1.58719 -29.72188,3.7143 -60.84168,11.31924 -96.60807,23.60872 -12.52715,4.30438 -16.31819,6.83455 -41.39099,27.62467 -19.87869,16.48322 -32.38572,30.79305 -40.17706,45.96834 -3.93319,7.6607 -6.86957,20.74005 -7.39997,32.9612 -0.55417,12.76869 0.35475,27.3825 1.70308,27.3825 0.43919,0 1.80338,-2.47579 3.03153,-5.50175 z m 40.49967,-27.4511 C 262.48444,500.5395 301.3566,481.4217 324,473.44007 c 9.09332,-3.20532 7.0171,-2.97308 -8.80686,0.98515 C 290.5767,480.5828 266.66183,490.7851 251,501.81059 c -6.89346,4.85281 -19.5513,16.50086 -21.13544,19.44934 -1.14735,2.13551 -0.88436,1.98056 15.63582,-9.21278 z M 370.5201,463.03897 c 10.92258,-3.06874 21.94496,-8.13981 28.02836,-12.89503 3.06501,-2.39583 5.39326,-4.53555 5.17389,-4.75492 -0.21937,-0.21938 -6.43415,2.46694 -13.81061,5.9696 -7.37646,3.50265 -17.23674,7.82466 -21.91174,9.60446 -4.675,1.7798 -8.6875,3.41621 -8.91667,3.63646 -1.09632,1.05368 5.18022,0.19723 11.43677,-1.56057 z M 285.76696,341.48846 c 6.84854,-2.14246 9.33642,-3.54156 14.5,-8.15435 7.54255,-6.73799 18.54433,-13.33225 28.95078,-17.35254 4.24476,-1.63986 8.04892,-2.98157 8.4537,-2.98157 0.40478,0 -2.6182,2.21388 -6.71774,4.91974 C 324.43686,322.22111 313.49365,332 315.19699,332 c 0.33737,0 11.79356,-2.21721 25.4582,-4.92713 31.41346,-6.22979 50.32863,-8.86196 90.49374,-12.59281 7.60398,-0.70631 7.79557,-0.82424 23.29792,-14.34013 5.90386,-5.14734 10.35603,-9.70616 9.89372,-10.13071 -0.46232,-0.42455 -6.69057,-1.8378 -13.84057,-3.14056 -11.4776,-2.09127 -15.9277,-2.36437 -38,-2.33203 -26.65086,0.039 -34.52391,0.93536 -52.5,5.97691 -26.13918,7.33096 -53.11229,20.62466 -67.5,33.26738 -4.70322,4.13279 -16.24872,16.90975 -17.67814,19.56371 -0.82674,1.53498 -0.68534,1.75107 0.84231,1.28732 1.00971,-0.30651 5.55596,-1.72109 10.10279,-3.14349 z m 253.69816,331.77382 c -4.28443,-10.25408 -15.26399,-24.30395 -25.33633,-32.42133 -7.07277,-5.7 -19.27248,-12.56908 -27.44279,-15.45174 l -3.87127,-1.36586 6.0306,6.73833 c 11.36265,12.69613 28.65475,29.85279 34.65467,34.38323 6.73373,5.08453 16.51436,11.85509 17.12563,11.85509 0.22067,0 -0.30156,-1.68197 -1.16051,-3.73772 z M 412.07692,506.07692 C 414.51547,503.63837 415,502.33837 415,498.23421 c 0,-9.18477 -6.85309,-17.709 -11.75258,-14.61848 -4.03741,2.54673 -5.71012,6.3461 -5.72896,13.01264 -0.0173,6.12246 0.1859,6.71389 3.24732,9.45139 4.17351,3.73194 7.57722,3.73108 11.31114,-0.003 z M 270.40698,406.04893 c 3.08553,-1.62308 8.15449,-4.77308 11.26433,-7 6.2063,-4.44423 7.32869,-4.82428 7.32869,-2.48154 0,1.01906 0.6122,1.39017 1.75,1.0608 0.9625,-0.27862 8.5,-2.39239 16.75,-4.69728 18.77391,-5.24506 24.94755,-8.44442 34.47836,-17.86768 7.23722,-7.15556 7.71071,-7.44218 12.52164,-7.57992 2.75,-0.0787 6.53984,-0.94623 8.42187,-1.92779 l 3.42187,-1.78464 -5.92187,-3.28066 c -3.25703,-1.80436 -7.09564,-4.20926 -8.53024,-5.34421 C 347.7879,351.89945 339.37954,349 334.06831,349 c -7.62229,0 -22.08797,5.11884 -22.06148,7.8067 0.004,0.38132 1.5288,1.72957 3.38897,2.99612 l 3.38214,2.30283 3.32846,-2.02416 c 5.25561,-3.19613 10.88171,-3.62268 16.28091,-1.23436 2.53698,1.12222 4.61269,2.45413 4.61269,2.9598 0,0.50566 -2.23072,3.00597 -4.95716,5.55623 -4.49786,4.20722 -5.41003,4.63684 -9.84496,4.63684 -5.14304,0 -6.64894,-0.81731 -22.97552,-12.46968 l -6.27763,-4.48039 3.77763,-1.58554 c 9.68531,-4.0651 47.3385,-13.76622 71.77764,-18.49309 15.5766,-3.01273 33.2045,-3.6901 41.37011,-1.5897 8.35468,2.14904 12.35091,4.11302 19.73169,9.69729 l 6.10181,4.6166 3.5834,-1.83839 c 1.97087,-1.01112 3.89492,-2.34245 4.27568,-2.95853 1.38595,-2.24252 -13.37881,-12.65448 -23.83473,-16.80802 -7.2895,-2.89569 -7.69292,-2.94303 -17.34552,-2.03533 C 366.57137,327.987 316.9296,338.41756 281,350.82037 c -18.65821,6.44078 -19,6.63348 -19,10.7121 0,3.1202 0.24738,3.44946 2.25,2.99467 9.25602,-2.10199 12.17795,-2.47854 19.25,-2.48073 9.76218,-0.003 13.42218,1.48914 24.26216,9.89165 4.30124,3.33407 8.36435,6.06194 9.02914,6.06194 3.2141,0 0.55606,2.0514 -5.0413,3.89074 -7.0721,2.32395 -14.75,3.71235 -14.75,2.66724 0,-0.38369 1.39338,-2.72283 3.09639,-5.19808 1.70302,-2.47525 2.94052,-4.61455 2.75,-4.75401 -0.19051,-0.13946 -1.8935,-1.32373 -3.78441,-2.6317 l -3.43802,-2.37814 -4.56198,5.42818 c -8.61314,10.24856 -19.45015,21.01636 -24.25362,24.09875 -4.19473,2.69174 -4.80836,3.51887 -4.80836,6.48127 0,4.23268 1.0957,4.29064 8.40698,0.44468 z m 11.66232,-31.41288 c 2.16189,-3.22518 3.9307,-6.3208 3.9307,-6.87917 0,-1.4958 -11.69402,0.031 -16.52108,2.15708 -5.94074,2.61656 -7.47892,4.57761 -7.47892,9.53502 0,4.62369 0.82379,5.71641 5.5,7.29558 2.72118,0.91895 3.35496,0.67585 6.8193,-2.61573 2.10062,-1.99585 5.58812,-6.26761 7.75,-9.49278 z m 103.5709,-1.08351 C 393.49386,369.86816 403.63083,360.96903 414.74698,348 l 6.42848,-7.5 -5.24927,-1.17833 -5.24928,-1.17832 -7.06527,7.67832 c -10.54884,11.46418 -14.62525,15.12376 -19.76215,17.7414 -5.0482,2.57244 -26.77786,9.43693 -29.87278,9.43693 -2.01941,0 -8.44033,5.12924 -9.94841,7.94712 -0.79669,1.48862 1.05194,1.35802 16.78822,-1.18604 14.15427,-2.2883 19.1085,-3.52738 24.82368,-6.20854 z m 25.8598,-0.5148 c 11.72581,-1.29133 35.02253,-2.85114 60,-4.01726 9.55663,-0.44617 64.14592,-0.94468 82.5,2.2412 v -12.00254 l -36.25,-0.63613 c -19.9375,-0.34987 -42.1,-0.2642 -49.25,0.19038 -7.15,0.45458 -13.36091,0.64151 -13.80202,0.41539 -0.44111,-0.22611 1.13389,-1.64451 3.5,-3.152 5.41827,-3.45206 12.29185,-10.98695 11.10518,-12.17362 -0.48618,-0.48618 -2.89078,-1.15789 -5.34356,-1.49268 -4.13069,-0.56382 -4.8408,-0.3049 -9.62811,3.51059 -8.72721,6.95558 -13.1126,8.39336 -27.11001,8.8882 -11.07239,0.39143 -12.42306,0.64043 -13.75,2.53491 -0.80931,1.15546 -1.47148,2.4507 -1.47148,2.87833 0,0.42762 3.12344,0.77749 6.94098,0.77749 12.83975,0 8.36398,3.18076 -6.44098,4.57736 -6.941,0.65478 -14.24312,3.99835 -17.62107,8.06852 -1.12369,1.35397 -0.74758,1.4677 3.17314,0.95951 2.44636,-0.31708 8.49793,-1.02253 13.44793,-1.56765 z m -22,-19.47545 c 3.61371,-2.92443 3.0156,-4.50193 -3.43595,-9.06229 -3.77969,-2.67172 -5.02759,-2.99603 -11.40408,-2.96375 -7.56681,0.0383 -13.64699,2.15935 -18.64431,6.50399 l -2.48435,2.15986 2.79011,2.39995 c 3.52106,3.02869 5.45079,3.01912 9.60759,-0.0477 6.13374,-4.52533 12.23055,-4.16184 16.26713,0.96985 2.42806,3.08677 3.53157,3.09282 7.30386,0.0401 z m 135.84007,-5.70222 -6.13992,-6.13992 -4.60008,1.35824 c -2.53004,0.74703 -4.60007,1.629 -4.60007,1.95993 0,0.33092 1.61007,2.48268 3.57792,4.78168 l 3.57793,4.18 h 7.16207 z m -18.22356,-3.87219 c 5.16092,-4.56404 9.25806,-8.71721 9.10476,-9.22926 C 515.01307,330.72306 492.86947,305 490.60366,305 c -1.25159,0 -10.03896,8.48683 -18.13977,17.51935 -14.36515,16.01736 -13.41724,14.00326 -7.51335,15.96422 3.50542,1.16431 7.28286,3.71062 12.20292,8.22575 l 7.12589,6.53943 6.72684,-0.48131 6.72683,-0.4813 z M 554,336.04531 v -16.95468 c -7.93183,-1.49075 -16.13709,-0.99468 -24.16944,-0.88452 l -17.66943,0.29389 2.71513,4 2.71514,4 10.62593,0.28304 c 0,0 3.93856,7.66807 1.97367,10.05276 -3.94352,4.78604 -3.74412,6.38631 1.14135,9.16017 21.93209,-23.7594 6.98253,2.82507 21.41765,6.86785 0.9562,0.10417 1.25,-3.84879 1.25,-16.81851 z m -96.4253,-8.86943 c 2.94276,-0.48812 4.94912,-1.67611 7.22238,-4.27643 l 3.14767,-3.60056 -4.72237,0.32672 c -20.44253,1.41433 -34.19709,2.73301 -33.69927,3.23084 0.32587,0.32586 2.92898,1.57726 5.78469,2.78088 5.39986,2.27592 14.16871,2.88181 22.2669,1.53855 z m 5.03573,-14.82244 c 4.63131,-0.61241 5.48694,-1.25431 16.19955,-12.15298 l 11.30998,-11.50643 8.0216,8.65298 c 6.46013,6.96861 8.57617,8.65299 10.87048,8.65299 2.19302,0 2.92242,0.51797 3.16841,2.25 0.29122,2.0505 0.93176,2.27653 7.2242,2.54922 6.68136,0.28953 6.85922,0.23619 5.5,-1.64941 -1.51008,-2.09488 -17.71519,-20.22016 -28.29688,-31.64981 l -6.48066,-7 -16.63161,16.5 c -9.14739,9.075 -18.44289,18.6375 -20.65668,21.25 l -4.02506,4.75 h 4.45355 c 2.44945,0 6.65385,-0.29095 9.34312,-0.64656 z m 2.28989,296.07024 c 0.12935,-7.88482 1.95442,-25.96656 3.54685,-35.14011 l 1.25269,-7.21642 -3.95247,-2.61562 c -11.76524,-7.78587 -36.80173,-27.63265 -46.40843,-36.7886 -4.71337,-4.49223 -5.46282,-4.86228 -8.64033,-4.26617 l -3.4793,0.65272 -0.49884,21.72526 c -0.39785,17.32655 -0.93591,23.64872 -2.6575,31.22526 -1.18725,5.225 -2.4085,10.68815 -2.71388,12.14033 -0.5411,2.5731 -0.29393,2.72151 9.70766,5.82876 13.64577,4.23942 28.21972,10.70949 41.53449,18.43913 12.4606,7.23378 12.12324,7.34298 12.30906,-3.98454 z m 66.49647,-51.81611 c 4.0906,-1.70916 5.6125,-5.52986 5.57935,-14.00679 -0.0331,-8.45187 -1.35485,-13.34286 -4.49043,-16.6157 l -2.67456,-2.79164 5.31723,-0.0412 c 6.22382,-0.0482 8.33478,-1.91918 7.4233,-6.57934 -0.31488,-1.6099 -0.76212,-3.11669 -0.99386,-3.34843 -0.23174,-0.23174 -6.41455,-0.73815 -13.73958,-1.12536 C 515.29958,511.43739 510,510.20774 510,507.96482 510,507.43417 511.32822,507 512.9516,507 c 1.62338,0 8.62016,-1.8 15.5484,-4 6.92824,-2.2 13.25002,-4 14.0484,-4 1.09285,0 1.4516,-1.35928 1.4516,-5.5 0,-6.35858 1.24877,-8.06029 8.71585,-11.87717 5.38064,-2.75037 9.28415,-6.08774 9.28415,-7.93765 0,-0.6803 -1.94637,-4.37527 -4.32526,-8.21104 -6.65771,-10.73504 -13.31018,-23.36103 -15.72048,-29.83657 -2.58386,-6.94182 -2.20386,-12.27202 1.59425,-22.36268 1.34832,-3.58216 2.45149,-8.18753 2.45149,-10.23418 0,-3.69205 -5.10532,-20.54603 -6.70968,-22.15039 -1.16197,-1.16197 -60.4698,-2.22841 -67.6094,-1.21571 l -5.81909,0.82539 -3.77866,10 c -6.15702,16.29417 -9.40954,21.63569 -24.66095,40.5 -6.21721,7.69002 -10.11544,18.8491 -11.96193,34.2423 l -0.68881,5.74231 -2.90624,-4.01194 c -1.59842,-2.20656 -4.08173,-6.40874 -5.51845,-9.33816 l -2.61223,-5.32623 -10.61698,6.1654 c -5.83933,3.39096 -10.76058,6.91108 -10.9361,7.82248 -0.43215,2.244 3.99221,6.4927 7.4824,7.18534 1.55987,0.30955 5.28029,1.81002 8.2676,3.33436 7.41902,3.78572 10.78331,9.03552 15.91917,24.84103 3.989,12.27606 8.32799,20.59495 12.77212,24.48725 8.87593,7.77381 52.03765,26.29202 70.79203,30.37278 8.15661,1.7748 19.84552,1.81898 23.98199,0.0906 z M 395.8,484.6144 l 1.99756,-3.38561 -2.32472,-1.05921 c -1.2786,-0.58257 -4.17613,-3.51138 -6.43895,-6.50847 -4.07285,-5.39444 -4.14903,-5.43857 -7.57406,-4.3874 C 379.55692,469.85773 378,470.76227 378,471.2838 378,474.02381 390.64921,488 393.12907,488 c 0.37036,0 1.57228,-1.52352 2.67093,-3.3856 z m 69.10032,123.80928 c 0.12935,-7.88482 1.95442,-25.96656 3.54685,-35.14011 l 1.25269,-7.21642 -3.95247,-2.61562 c -11.76524,-7.78587 -36.80173,-27.63265 -46.40843,-36.7886 -4.71337,-4.49223 -5.46282,-4.86228 -8.64033,-4.26617 l -3.4793,0.65272 -0.49884,21.72526 c -0.39785,17.32655 -0.93591,23.64872 -2.6575,31.22526 -1.18725,5.225 -2.4085,10.68815 -2.71388,12.14033 -0.5411,2.5731 -0.29393,2.72151 9.70766,5.82876 13.64577,4.23942 28.21972,10.70949 41.53449,18.43913 12.4606,7.23378 12.12324,7.34298 12.30906,-3.98454 z m 66.49647,-51.81611 c 4.0906,-1.70916 5.6125,-5.52986 5.57935,-14.00679 -0.0331,-8.45187 -1.35485,-13.34286 -4.49043,-16.6157 l -2.67456,-2.79164 5.31723,-0.0412 c 6.22382,-0.0482 8.33478,-1.91918 7.4233,-6.57934 -0.31488,-1.6099 -0.76212,-3.11669 -0.99386,-3.34843 -0.23174,-0.23174 -6.41455,-0.73815 -13.73958,-1.12536 C 515.29958,511.43739 510,510.20774 510,507.96482 510,507.43417 511.32822,507 512.9516,507 c 1.62338,0 8.62016,-1.8 15.5484,-4 6.92824,-2.2 13.25002,-4 14.0484,-4 1.09285,0 1.4516,-1.35928 1.4516,-5.5 0,-6.35858 1.24877,-8.06029 8.71585,-11.87717 5.38064,-2.75037 9.28415,-6.08774 9.28415,-7.93765 0,-0.6803 -1.94637,-4.37527 -4.32526,-8.21104 -6.65771,-10.73504 -13.31018,-23.36103 -15.72048,-29.83657 -2.58386,-6.94182 -2.20386,-12.27202 1.59425,-22.36268 1.34832,-3.58216 2.45149,-8.18753 2.45149,-10.23418 0,-3.69205 -5.10532,-20.54603 -6.70968,-22.15039 -1.16197,-1.16197 -60.4698,-2.22841 -67.6094,-1.21571 l -5.81909,0.82539 -3.77866,10 c -6.15702,16.29417 -9.40954,21.63569 -24.66095,40.5 -6.21721,7.69002 -10.11544,18.8491 -11.96193,34.2423 l -0.68881,5.74231 -2.90624,-4.01194 c -1.59842,-2.20656 -4.08173,-6.40874 -5.51845,-9.33816 l -2.61223,-5.32623 -10.61698,6.1654 c -5.83933,3.39096 -10.76058,6.91108 -10.9361,7.82248 -0.43215,2.244 3.99221,6.4927 7.4824,7.18534 1.55987,0.30955 5.28029,1.81002 8.2676,3.33436 7.41902,3.78572 10.78331,9.03552 15.91917,24.84103 3.989,12.27606 8.32799,20.59495 12.77212,24.48725 8.87593,7.77381 52.03765,26.29202 70.79203,30.37278 8.15661,1.7748 19.84552,1.81898 23.98199,0.0906 z M 395.8,484.6144 l 1.99756,-3.38561 -2.32472,-1.05921 c -1.2786,-0.58257 -4.17613,-3.51138 -6.43895,-6.50847 -4.07285,-5.39444 -4.14903,-5.43857 -7.57406,-4.3874 C 379.55692,469.85773 378,470.76227 378,471.2838 378,474.02381 390.64921,488 393.12907,488 c 0.37036,0 1.57228,-1.52352 2.67093,-3.3856 z" /><path
         style="display:inline;fill:#f9edd0;fill-opacity:1"
         d="m 464.90032,608.42368 c 0.12935,-7.88482 1.95442,-25.96656 3.54685,-35.14011 l 1.25269,-7.21642 -3.95247,-2.61562 c -11.76524,-7.78587 -36.80173,-27.63265 -46.40843,-36.7886 -4.71337,-4.49223 -5.46282,-4.86228 -8.64033,-4.26617 l -3.4793,0.65272 -0.49884,21.72526 c -0.39785,17.32655 -0.93591,23.64872 -2.6575,31.22526 -1.18725,5.225 -2.4085,10.68815 -2.71388,12.14033 -0.5411,2.5731 -0.29393,2.72151 9.70766,5.82876 13.64577,4.23942 28.21972,10.70949 41.53449,18.43913 12.4606,7.23378 12.12324,7.34298 12.30906,-3.98454 z m 66.49647,-51.81611 c 4.0906,-1.70916 5.6125,-5.52986 5.57935,-14.00679 -0.0331,-8.45187 -1.35485,-13.34286 -4.49043,-16.6157 l -2.67456,-2.79164 5.31723,-0.0412 c 6.22382,-0.0482 8.33478,-1.91918 7.4233,-6.57934 -0.31488,-1.6099 -0.76212,-3.11669 -0.99386,-3.34843 -0.23174,-0.23174 -6.41455,-0.73815 -13.73958,-1.12536 C 515.29958,511.43739 510,510.20774 510,507.96482 510,507.43417 511.32822,507 512.9516,507 c 1.62338,0 8.62016,-1.8 15.5484,-4 6.92824,-2.2 13.25002,-4 14.0484,-4 1.09285,0 1.4516,-1.35928 1.4516,-5.5 0,-6.35858 1.24877,-8.06029 8.71585,-11.87717 5.38064,-2.75037 9.28415,-6.08774 9.28415,-7.93765 0,-0.6803 -1.94637,-4.37527 -4.32526,-8.21104 -6.65771,-10.73504 -13.31018,-23.36103 -15.72048,-29.83657 -2.58386,-6.94182 -2.20386,-12.27202 1.59425,-22.36268 1.34832,-3.58216 2.45149,-8.18753 2.45149,-10.23418 0,-3.69205 -5.10532,-20.54603 -6.70968,-22.15039 -1.16197,-1.16197 -60.4698,-2.22841 -67.6094,-1.21571 l -5.81909,0.82539 -3.77866,10 c -6.15702,16.29417 -9.40954,21.63569 -24.66095,40.5 -6.21721,7.69002 -10.11544,18.8491 -11.96193,34.2423 l -0.68881,5.74231 -2.90624,-4.01194 c -1.59842,-2.20656 -4.08173,-6.40874 -5.51845,-9.33816 l -2.61223,-5.32623 -10.61698,6.1654 c -5.83933,3.39096 -10.76058,6.91108 -10.9361,7.82248 -0.43215,2.244 3.99221,6.4927 7.4824,7.18534 1.55987,0.30955 5.28029,1.81002 8.2676,3.33436 7.41902,3.78572 10.78331,9.03552 15.91917,24.84103 3.989,12.27606 8.32799,20.59495 12.77212,24.48725 8.87593,7.77381 52.03765,26.29202 70.79203,30.37278 8.15661,1.7748 19.84552,1.81898 23.98199,0.0906 z M 395.8,484.6144 l 1.99756,-3.38561 -2.32472,-1.05921 c -1.2786,-0.58257 -4.17613,-3.51138 -6.43895,-6.50847 -4.07285,-5.39444 -4.14903,-5.43857 -7.57406,-4.3874 C 379.55692,469.85773 378,470.76227 378,471.2838 378,474.02381 390.64921,488 393.12907,488 c 0.37036,0 1.57228,-1.52352 2.67093,-3.3856 z"
         id="path124" /><path
         style="display:inline;fill:#000000;fill-opacity:1;stroke:none;stroke-width:1.75748;stroke-dasharray:none;stroke-opacity:1"
         d="M 529.03518,481.06574 C 527.77186,478.7052 527.67558,475 528.87756,475 c 0.48265,0 1.43775,0.675 2.12244,1.5 0.90071,1.08529 3.28457,1.5 8.62244,1.5 4.05766,0 5.12199,-0.2241 5.12199,0.23573 0,1.0067 -8.7007,4.76427 -12.19415,4.76427 -1.42836,0 -2.91886,-0.82018 -3.5151,-1.93426 z M 496.2979,435.94323 c -11.17028,-3.00184 -17.2173,-5.52823 -24.59422,-10.27524 l -3.6999,-4.69703 3.09642,-0.32364 c 3.40606,-0.356 10.4841,-2.0219 15.72898,-3.70198 5.24489,-1.68009 12.38996,-3.3212 15.87795,-3.64691 6.24236,-0.58292 6.44297,-0.52326 12.79354,3.80468 C 521.62721,421.27838 523.23276,423 521,423 c -0.55,0 -1.9,0.9 -3,2 -1.51515,1.51515 -2,3.33333 -2,7.5 0,8.9812 -1.8147,7.03603 -5.01655,-5.3772 -1.5508,-6.01233 -3.05597,-4.07222 -3.28683,4.23664 -0.21522,7.74542 0.0177,7.65176 -11.39872,4.58379 z M 501,426.96862 c 0,-2.52394 -2.52254,-3.60977 -4.52507,-1.94782 -1.14005,0.94616 -1.22752,1.57239 -0.36482,2.61188 1.76608,2.12799 4.88989,1.70377 4.88989,-0.66406 z m 20,-13.41244 c -1.925,-0.71659 -7.15586,-3.15248 -11.62413,-5.4131 -14.14075,-7.15416 -21.27203,-7.46047 -38.36213,-1.64775 -4.04326,1.3752 -7.52997,2.32178 -7.74824,2.1035 -0.78738,-0.78737 6.38734,-5.51815 13.61984,-8.98048 15.081,-7.21955 22.071,-7.12064 41.37841,0.58552 l 10.76374,4.29613 -0.64115,3 c -0.9487,4.43909 -2.23455,7.5093 -3.11159,7.42954 -0.42611,-0.0388 -2.34975,-0.65677 -4.27475,-1.37336 z"
         id="path118" /><path
         style="display:inline;fill:#f9edd0;fill-opacity:1"
         d="m 464.90032,608.42368 c 0.12935,-7.88482 1.95442,-25.96656 3.54685,-35.14011 l 1.25269,-7.21642 -3.95247,-2.61562 c -11.76524,-7.78587 -36.80173,-27.63265 -46.40843,-36.7886 -4.71337,-4.49223 -5.46282,-4.86228 -8.64033,-4.26617 l -3.4793,0.65272 -0.49884,21.72526 c -0.39785,17.32655 -0.93591,23.64872 -2.6575,31.22526 -1.18725,5.225 -2.4085,10.68815 -2.71388,12.14033 -0.5411,2.5731 -0.29393,2.72151 9.70766,5.82876 13.64577,4.23942 28.21972,10.70949 41.53449,18.43913 12.4606,7.23378 12.12324,7.34298 12.30906,-3.98454 z m 66.49647,-51.81611 c 4.0906,-1.70916 5.6125,-5.52986 5.57935,-14.00679 -0.0331,-8.45187 -1.35485,-13.34286 -4.49043,-16.6157 l -2.67456,-2.79164 5.31723,-0.0412 c 6.22382,-0.0482 8.33478,-1.91918 7.4233,-6.57934 -0.31488,-1.6099 -0.76212,-3.11669 -0.99386,-3.34843 -0.23174,-0.23174 -6.41455,-0.73815 -13.73958,-1.12536 C 515.29958,511.43739 510,510.20774 510,507.96482 510,507.43417 511.32822,507 512.9516,507 c 1.62338,0 8.62016,-1.8 15.5484,-4 6.92824,-2.2 13.25002,-4 14.0484,-4 1.09285,0 1.4516,-1.35928 1.4516,-5.5 0,-6.35858 1.24877,-8.06029 8.71585,-11.87717 5.38064,-2.75037 9.28415,-6.08774 9.28415,-7.93765 0,-0.6803 -1.94637,-4.37527 -4.32526,-8.21104 -6.65771,-10.73504 -13.31018,-23.36103 -15.72048,-29.83657 -2.58386,-6.94182 -2.20386,-12.27202 1.59425,-22.36268 1.34832,-3.58216 2.45149,-8.18753 2.45149,-10.23418 0,-3.69205 -5.10532,-20.54603 -6.70968,-22.15039 -1.16197,-1.16197 -60.4698,-2.22841 -67.6094,-1.21571 l -5.81909,0.82539 -3.77866,10 c -6.15702,16.29417 -9.40954,21.63569 -24.66095,40.5 -6.21721,7.69002 -10.11544,18.8491 -11.96193,34.2423 l -0.68881,5.74231 -2.90624,-4.01194 c -1.59842,-2.20656 -4.08173,-6.40874 -5.51845,-9.33816 l -2.61223,-5.32623 -10.61698,6.1654 c -5.83933,3.39096 -10.76058,6.91108 -10.9361,7.82248 -0.43215,2.244 3.99221,6.4927 7.4824,7.18534 1.55987,0.30955 5.28029,1.81002 8.2676,3.33436 7.41902,3.78572 10.78331,9.03552 15.91917,24.84103 3.989,12.27606 8.32799,20.59495 12.77212,24.48725 8.87593,7.77381 52.03765,26.29202 70.79203,30.37278 8.15661,1.7748 19.84552,1.81898 23.98199,0.0906 z m -2.36161,-75.54183 C 527.77186,478.7052 527.67558,475 528.87756,475 c 0.48265,0 1.43775,0.675 2.12244,1.5 0.90071,1.08529 3.28457,1.5 8.62244,1.5 4.05766,0 7.37756,0.37622 7.37756,0.83605 0,1.0067 -10.95627,4.16395 -14.44972,4.16395 -1.42836,0 -2.91886,-0.82018 -3.5151,-1.93426 z M 496.2979,435.94323 c -11.17028,-3.00184 -17.2173,-5.52823 -24.59422,-10.27524 l -6.79631,-4.37339 6.19283,-0.64728 c 3.40606,-0.35601 10.4841,-2.0219 15.72898,-3.70198 5.24489,-1.68009 12.38996,-3.3212 15.87795,-3.64691 6.24236,-0.58292 6.44297,-0.52326 12.79354,3.80468 C 521.62721,421.27838 523.23276,423 521,423 c -0.55,0 -1.9,0.9 -3,2 -1.51515,1.51515 -2,3.33333 -2,7.5 0,8.9812 -1.8147,7.03603 -5.01655,-5.3772 -1.5508,-6.01233 -3.05597,-4.07222 -3.28683,4.23664 -0.21522,7.74542 0.0177,7.65176 -11.39872,4.58379 z M 501,426.96862 c 0,-2.52394 -2.52254,-3.60977 -4.52507,-1.94782 -1.14005,0.94616 -1.22752,1.57239 -0.36482,2.61188 1.76608,2.12799 4.88989,1.70377 4.88989,-0.66406 z m 20,-13.41244 c -1.925,-0.71659 -7.15586,-3.15248 -11.62413,-5.4131 -14.14075,-7.15416 -21.27203,-7.46047 -38.36213,-1.64775 -4.04326,1.3752 -7.52997,2.32178 -7.74824,2.1035 -0.78738,-0.78737 6.38734,-5.51815 13.61984,-8.98048 15.081,-7.21955 22.071,-7.12064 41.37841,0.58552 l 10.76374,4.29613 -0.64115,3 c -0.9487,4.43909 -2.23455,7.5093 -3.11159,7.42954 -0.42611,-0.0388 -2.34975,-0.65677 -4.27475,-1.37336 z m -125.2,71.05822 1.99756,-3.38561 -2.32472,-1.05921 c -1.2786,-0.58257 -4.17613,-3.51138 -6.43895,-6.50847 -4.07285,-5.39444 -4.14903,-5.43857 -7.57406,-4.3874 C 379.55692,469.85773 378,470.76227 378,471.2838 378,474.02381 390.64921,488 393.12907,488 c 0.37036,0 1.57228,-1.52352 2.67093,-3.3856 z"
         id="path123" /><path
         style="display:inline;fill:#dca542;fill-opacity:1"
         d="m 539.46512,673.26228 c -4.28443,-10.25408 -15.26399,-24.30395 -25.33633,-32.42133 -7.07277,-5.7 -19.27248,-12.56908 -27.44279,-15.45174 l -3.87127,-1.36586 6.0306,6.73833 c 11.36265,12.69613 28.65475,29.85279 34.65467,34.38323 6.73373,5.08453 16.51436,11.85509 17.12563,11.85509 0.22067,0 -0.30156,-1.68197 -1.16051,-3.73772 z M 412.07692,506.07692 C 414.51547,503.63837 415,502.33837 415,498.23421 c 0,-9.18477 -6.85309,-17.709 -11.75258,-14.61848 -4.03741,2.54673 -5.71012,6.3461 -5.72896,13.01264 -0.0173,6.12246 0.1859,6.71389 3.24732,9.45139 4.17351,3.73194 7.57722,3.73108 11.31114,-0.003 z m -7.86442,-7.26442 c -1.68876,-1.68876 -1.51395,-5.31743 0.32988,-6.84767 2.1888,-1.81654 3.67636,0.034 3.28046,4.081 -0.35295,3.60789 -1.72086,4.65615 -3.61034,2.76667 z M 270.40698,406.04893 c 3.08553,-1.62308 8.15449,-4.77308 11.26433,-7 6.2063,-4.44423 7.32869,-4.82428 7.32869,-2.48154 0,1.01906 0.6122,1.39017 1.75,1.0608 0.9625,-0.27862 8.5,-2.39239 16.75,-4.69728 18.77391,-5.24506 24.94755,-8.44442 34.47836,-17.86768 7.23722,-7.15556 7.71071,-7.44218 12.52164,-7.57992 2.75,-0.0787 6.53984,-0.94623 8.42187,-1.92779 l 3.42187,-1.78464 -5.92187,-3.28066 c -3.25703,-1.80436 -7.09564,-4.20926 -8.53024,-5.34421 C 347.7879,351.89945 339.37954,349 334.06831,349 c -7.62229,0 -22.08797,5.11884 -22.06148,7.8067 0.004,0.38132 1.5288,1.72957 3.38897,2.99612 l 3.38214,2.30283 3.32846,-2.02416 c 5.25561,-3.19613 10.88171,-3.62268 16.28091,-1.23436 2.53698,1.12222 4.61269,2.45413 4.61269,2.9598 0,0.50566 -2.23072,3.00597 -4.95716,5.55623 -4.49786,4.20722 -5.41003,4.63684 -9.84496,4.63684 -5.14304,0 -6.64894,-0.81731 -22.97552,-12.46968 l -6.27763,-4.48039 3.77763,-1.58554 c 9.68531,-4.0651 47.3385,-13.76622 71.77764,-18.49309 15.5766,-3.01273 33.2045,-3.6901 41.37011,-1.5897 8.35468,2.14904 12.35091,4.11302 19.73169,9.69729 l 6.10181,4.6166 3.5834,-1.83839 c 1.97087,-1.01112 3.89492,-2.34245 4.27568,-2.95853 1.38595,-2.24252 -13.37881,-12.65448 -23.83473,-16.80802 -7.2895,-2.89569 -7.69292,-2.94303 -17.34552,-2.03533 C 366.57137,327.987 316.9296,338.41756 281,350.82037 c -18.65821,6.44078 -19,6.63348 -19,10.7121 0,3.1202 0.24738,3.44946 2.25,2.99467 9.25602,-2.10199 12.17795,-2.47854 19.25,-2.48073 9.76218,-0.003 13.42218,1.48914 24.26216,9.89165 4.30124,3.33407 8.36435,6.06194 9.02914,6.06194 3.2141,0 0.55606,2.0514 -5.0413,3.89074 -7.0721,2.32395 -14.75,3.71235 -14.75,2.66724 0,-0.38369 1.39338,-2.72283 3.09639,-5.19808 1.70302,-2.47525 2.94052,-4.61455 2.75,-4.75401 -0.19051,-0.13946 -1.8935,-1.32373 -3.78441,-2.6317 l -3.43802,-2.37814 -4.56198,5.42818 c -8.61314,10.24856 -19.45015,21.01636 -24.25362,24.09875 -4.19473,2.69174 -4.80836,3.51887 -4.80836,6.48127 0,4.23268 1.0957,4.29064 8.40698,0.44468 z m 11.66232,-31.41288 c 2.16189,-3.22518 3.9307,-6.3208 3.9307,-6.87917 0,-1.4958 -11.69402,0.031 -16.52108,2.15708 -5.94074,2.61656 -7.47892,4.57761 -7.47892,9.53502 0,4.62369 0.82379,5.71641 5.5,7.29558 2.72118,0.91895 3.35496,0.67585 6.8193,-2.61573 2.10062,-1.99585 5.58812,-6.26761 7.75,-9.49278 z m 103.5709,-1.08351 C 393.49386,369.86816 403.63083,360.96903 414.74698,348 l 6.42848,-7.5 -5.24927,-1.17833 -5.24928,-1.17832 -7.06527,7.67832 c -10.54884,11.46418 -14.62525,15.12376 -19.76215,17.7414 -5.0482,2.57244 -26.77786,9.43693 -29.87278,9.43693 -2.01941,0 -8.44033,5.12924 -9.94841,7.94712 -0.79669,1.48862 1.05194,1.35802 16.78822,-1.18604 14.15427,-2.2883 19.1085,-3.52738 24.82368,-6.20854 z m 25.8598,-0.5148 c 11.72581,-1.29133 35.02253,-2.85114 60,-4.01726 19.33577,-0.90272 70.31899,0.12683 78.75,1.59028 l 3.75,0.65092 v -6.00127 -6.00127 l -36.25,-0.63613 c -19.9375,-0.34987 -42.1,-0.2642 -49.25,0.19038 -7.15,0.45458 -13.36091,0.64151 -13.80202,0.41539 -0.44111,-0.22611 1.13389,-1.64451 3.5,-3.152 5.41827,-3.45206 12.29185,-10.98695 11.10518,-12.17362 -0.48618,-0.48618 -2.89078,-1.15789 -5.34356,-1.49268 -4.13069,-0.56382 -4.8408,-0.3049 -9.62811,3.51059 -8.72721,6.95558 -13.1126,8.39336 -27.11001,8.8882 -11.07239,0.39143 -12.42306,0.64043 -13.75,2.53491 -0.80931,1.15546 -1.47148,2.4507 -1.47148,2.87833 0,0.42762 3.12344,0.77749 6.94098,0.77749 12.83975,0 8.36398,3.18076 -6.44098,4.57736 -6.941,0.65478 -14.24312,3.99835 -17.62107,8.06852 -1.12369,1.35397 -0.74758,1.4677 3.17314,0.95951 2.44636,-0.31708 8.49793,-1.02253 13.44793,-1.56765 z m -22,-19.47545 c 3.61371,-2.92443 3.0156,-4.50193 -3.43595,-9.06229 -3.77969,-2.67172 -5.02759,-2.99603 -11.40408,-2.96375 -7.56681,0.0383 -13.64699,2.15935 -18.64431,6.50399 l -2.48435,2.15986 2.79011,2.39995 c 3.52106,3.02869 5.45079,3.01912 9.60759,-0.0477 6.13374,-4.52533 12.23055,-4.16184 16.26713,0.96985 2.42806,3.08677 3.53157,3.09282 7.30386,0.0401 z m 135.84007,-5.70222 -6.13992,-6.13992 -4.60008,1.35824 c -2.53004,0.74703 -4.60007,1.629 -4.60007,1.95993 0,0.33092 1.61007,2.48268 3.57792,4.78168 l 3.57793,4.18 h 7.16207 7.16208 z m -18.22356,-3.87219 c 5.16092,-4.56404 9.25806,-8.71721 9.10476,-9.22926 C 515.01307,330.72306 492.86947,305 490.60366,305 c -1.25159,0 -10.03896,8.48683 -18.13977,17.51935 -14.36515,16.01736 -13.41724,14.00326 -7.51335,15.96422 3.50542,1.16431 7.28286,3.71062 12.20292,8.22575 l 7.12589,6.53943 6.72684,-0.48131 6.72683,-0.4813 z m -23.8804,-5.15166 -6.14473,-6.16378 2.94559,-3.58622 c 1.62008,-1.97242 4.49841,-5.37669 6.39629,-7.56504 l 3.4507,-3.97882 2.60479,2.44707 c 1.43264,1.3459 4.45761,4.84867 6.72216,7.78395 l 4.11737,5.33688 -5.88283,5.94487 C 494.20988,342.32481 491.07171,345 490.47172,345 c -0.59999,0 -3.85601,-2.7737 -7.23561,-6.16378 z M 554,336.04531 v -16.95468 l -3.25,-0.58921 c -1.7875,-0.32406 -11.20125,-0.45695 -20.91944,-0.29531 l -17.66943,0.29389 2.71513,4 2.71514,4 10.62593,0.28304 10.62594,0.28303 -2.53987,2.71697 c -1.39693,1.49433 -4.14751,4.66807 -6.1124,7.05276 -3.94352,4.78604 -3.74412,6.38631 1.14135,9.16017 2.48458,1.41068 2.73389,1.35368 4.37323,-1 C 538.40039,341.12689 545.15513,334 546.12736,334 c 0.47995,0 0.87264,4.0187 0.87264,8.93045 0,9.5726 -0.16414,9.28905 5.75,9.93337 0.9562,0.10417 1.25,-3.84879 1.25,-16.81851 z m -96.4253,-8.86943 c 2.94276,-0.48812 4.94912,-1.67611 7.22238,-4.27643 l 3.14767,-3.60056 -4.72237,0.32672 c -20.44253,1.41433 -34.19709,2.73301 -33.69927,3.23084 0.32587,0.32586 2.92898,1.57726 5.78469,2.78088 5.39986,2.27592 14.16871,2.88181 22.2669,1.53855 z m 5.03573,-14.82244 c 4.63131,-0.61241 5.48694,-1.25431 16.19955,-12.15298 l 11.30998,-11.50643 8.0216,8.65298 c 6.46013,6.96861 8.57617,8.65299 10.87048,8.65299 2.19302,0 2.92242,0.51797 3.16841,2.25 0.29122,2.0505 0.93176,2.27653 7.2242,2.54922 6.68136,0.28953 6.85922,0.23619 5.5,-1.64941 -1.51008,-2.09488 -17.71519,-20.22016 -28.29688,-31.64981 l -6.48066,-7 -16.63161,16.5 c -9.14739,9.075 -18.44289,18.6375 -20.65668,21.25 l -4.02506,4.75 h 4.45355 c 2.44945,0 6.65385,-0.29095 9.34312,-0.64656 z"
         id="path119" /><path
         style="display:inline;fill:#8a1b24;fill-opacity:1"
         d="m 657.41912,700.63956 c 12.20499,-16.28878 10.80451,-37.44953 -3.40415,-51.43584 -10.35046,-10.18848 -19.98256,-15.25404 -44.3553,-23.32665 C 569.58276,612.60301 557.9434,607.74119 546.5,599.49493 539.74188,594.62495 530.12491,584.97673 524.5763,577.5 l -3.71059,-5 -9.18285,-1.05954 c -5.05057,-0.58275 -9.52327,-0.8919 -9.93932,-0.68699 -1.42386,0.70124 11.19572,23.73687 17.81897,32.52652 9.39865,12.47287 25.27012,25.54357 40.18749,33.09578 2.8875,1.46186 5.25,2.82339 5.25,3.02563 0,0.67073 -17.37517,-5.07479 -25.1577,-8.31901 -16.68769,-6.95641 -35.94323,-22.78506 -47.02342,-38.65471 -2.84467,-4.07428 -5.29946,-7.28043 -5.45511,-7.12478 -0.56758,0.56758 2.61183,12.58661 5.02675,19.00246 4.72802,12.56119 8.0495,16.44615 24.78696,28.99195 26.30332,19.71603 35.6474,22.89406 78.61487,26.73782 14.90553,1.33342 24.32713,3.38356 31.99865,6.96292 13.92742,6.49823 20.48726,15.22677 20.62785,27.4475 0.0446,3.87995 -0.30939,9.04677 -0.78672,11.48183 l -0.86786,4.42738 4.15121,-3.28782 c 2.28316,-1.8083 5.2098,-4.70062 6.50364,-6.42738 z M 693.8987,664 c 0.10423,-10.93902 -3.65378,-20.54619 -12.04493,-30.79229 -8.60461,-10.50673 -19.55154,-17.84801 -39.09881,-26.22062 -41.98437,-17.98302 -63.81771,-31.05414 -84.92103,-50.84029 l -7.66606,-7.18759 -0.71822,3.27005 c -0.39503,1.79853 -1.64983,5.18757 -2.78845,7.5312 -1.85864,3.82564 -1.94434,4.74552 -0.83845,9.00034 4.75823,18.30704 18.69883,32.53537 39.38102,40.19383 5.95479,2.20502 22.72758,6.22551 33.29623,7.98122 35.17795,5.84389 57.62589,18.9723 67.48783,39.46942 2.60264,5.40934 4.142,10.25108 4.64018,14.59473 l 0.74549,6.5 1.2364,-4 c 0.68002,-2.2 1.25998,-6.475 1.2888,-9.5 z m -480.5426,0.80711 c 2.27914,-1.75609 4.30184,-3.30154 4.49489,-3.43432 0.19304,-0.13279 -0.77707,-1.73349 -2.15581,-3.55711 -6.32997,-8.37248 -11.00311,-20.45751 -12.69831,-32.83857 -1.29986,-9.49363 -0.63645,-17.70468 2.1392,-26.47711 1.9448,-6.14649 4.76508,-11.90328 4.82849,-9.85595 0.0195,0.62922 0.50535,5.72323 1.07969,11.32003 1.81409,17.67778 9.55641,34.12153 20.88233,44.35149 4.04773,3.65605 4.32438,3.75002 6.6173,2.24763 1.31613,-0.86236 5.78218,-3.62557 9.92454,-6.14046 4.14237,-2.51489 7.53158,-4.88518 7.53158,-5.26731 0,-0.38213 -1.91633,-3.25683 -4.25851,-6.38822 -9.71866,-12.9934 -17.14124,-31.93604 -18.91326,-48.26721 -1.40463,-12.9452 0.56788,-27.3345 5.5741,-40.66255 1.91755,-5.1051 3.3283,-9.44015 3.13499,-9.63346 -1.00226,-1.00227 -12.89837,6.76115 -22.53732,14.70789 -26.15866,21.56627 -37.91703,39.97559 -39.66612,62.10269 -1.07529,13.60319 2.80257,29.01851 10.23392,40.68193 3.32105,5.21236 17.45694,20.3035 19.01832,20.3035 0.34434,0 2.49083,-1.4368 4.76998,-3.19289 z m 69.67714,-43.32396 C 285.76496,620.09889 288,618.7389 288,618.46096 c 0,-0.27795 -1.80842,-4.10213 -4.01872,-8.4982 -5.03857,-10.02121 -7.97306,-22.00621 -7.94841,-32.46276 l 0.0189,-8 5.0227,10.32405 c 4.09096,8.40888 6.50432,11.86734 13.00957,18.64336 11.79884,12.28995 10.34281,12.13743 32.35457,3.38913 10.18047,-4.0461 18.52152,-7.63217 18.53568,-7.96904 0.0142,-0.33688 -3.09969,-2.9366 -6.91967,-5.77716 -9.42366,-7.0075 -14.33057,-12.93259 -19.62493,-23.69707 -5.86897,-11.9328 -7.77312,-20.99225 -7.12802,-33.91327 0.43803,-8.77363 2.37245,-20.15924 3.27219,-19.2595 0.17442,0.17441 0.81065,3.45415 1.41386,7.28831 4.27627,27.18129 20.70454,46.24796 47.91438,55.60952 8.50142,2.92492 8.75785,2.26343 1.43068,-3.69063 -15.35163,-12.47476 -23.31781,-25.57311 -26.29769,-43.23987 -2.33242,-13.82812 1.86482,-29.52366 12.02244,-44.95783 2.71717,-4.12865 2.20894,-4.13715 -11.17746,-0.18692 -53.17725,15.69223 -81.05262,35.62048 -90.13351,64.43692 -1.76728,5.60813 -2.20362,9.38607 -2.19446,19 0.006,6.6 0.59932,14.475 1.31783,17.5 1.73776,7.31607 9.1815,22.39864 13.81891,28 4.32045,5.21852 12.92882,13 14.38143,13 0.54794,0 3.23129,-1.13258 5.963,-2.51685 z M 388.3571,560.9036 c 0.62358,-5.59026 0.61729,-5.60683 -5.74924,-15.12884 C 372.77489,531.0682 369.24127,519.77749 368.1254,499.5 l -0.66036,-12 -2.74484,5.24107 c -5.32347,10.16477 -7.53357,25.69028 -5.38194,37.80706 2.4425,13.7548 8.03674,22.74636 20.61704,33.13756 7.21682,5.96102 7.43457,5.88892 8.4018,-2.78209 z M 205.00071,539.49825 c 7.70013,-18.9719 29.75156,-42.25449 51.02068,-53.86924 17.3101,-9.45278 47.44723,-19.44184 91.47861,-30.32091 8.49738,-2.09949 28.60246,-9.37775 35.98705,-13.0277 17.75888,-8.77761 32.35262,-20.75384 42.99123,-35.2804 l 4.76032,-6.5 -0.70981,4.5 c -0.39039,2.475 -2.41582,8.41298 -4.50096,13.19552 -3.55702,8.15849 -3.64665,8.60082 -1.45123,7.16234 2.54259,-1.66598 11.26527,-12.13235 16.17307,-19.40613 3.43591,-5.09232 9.74496,-17.25648 10.73714,-20.70173 0.74904,-2.60096 -0.10046,-2.69624 -14.23111,-1.59623 l -8.24429,0.64178 -4.23714,5.78746 c -2.33043,3.18309 -4.36853,5.65606 -4.52911,5.49549 -0.16058,-0.16058 0.83815,-2.26893 2.2194,-4.68523 1.38124,-2.4163 2.51677,-4.73077 2.52339,-5.14327 0.0138,-0.85984 -10.46815,-0.99669 -13.52071,-0.17652 -1.11801,0.30039 -3.27647,2.51206 -4.79658,4.91483 -6.86538,10.85182 -22.21718,23.70642 -35.53346,29.75339 -8.86872,4.02732 -27.25273,8.58441 -37.40815,9.27285 l -8.22905,0.55786 10.5,-3.8906 c 20.31829,-7.52862 33.68296,-15.57045 45.13546,-27.15906 4.19951,-4.24941 8.17849,-8.74086 8.84219,-9.98099 1.19938,-2.24106 1.17419,-2.25073 -4.13546,-1.58719 -29.72188,3.7143 -60.84168,11.31924 -96.60807,23.60872 -12.52715,4.30438 -16.31819,6.83455 -41.39099,27.62467 -19.87869,16.48322 -32.38572,30.79305 -40.17706,45.96834 -3.93319,7.6607 -6.86957,20.74005 -7.39997,32.9612 -0.55417,12.76869 0.35475,27.3825 1.70308,27.3825 0.43919,0 1.80338,-2.47579 3.03153,-5.50175 z m 40.49967,-27.4511 C 262.48444,500.5395 301.3566,481.4217 324,473.44007 c 9.09332,-3.20532 7.0171,-2.97308 -8.80686,0.98515 C 290.5767,480.5828 266.66183,490.7851 251,501.81059 c -6.89346,4.85281 -19.5513,16.50086 -21.13544,19.44934 -1.14735,2.13551 -0.88436,1.98056 15.63582,-9.21278 z M 370.5201,463.03897 c 10.92258,-3.06874 21.94496,-8.13981 28.02836,-12.89503 3.06501,-2.39583 5.39326,-4.53555 5.17389,-4.75492 -0.21937,-0.21938 -6.43415,2.46694 -13.81061,5.9696 -7.37646,3.50265 -17.23674,7.82466 -21.91174,9.60446 -4.675,1.7798 -8.6875,3.41621 -8.91667,3.63646 -1.09632,1.05368 5.18022,0.19723 11.43677,-1.56057 z M 285.76696,341.48846 c 6.84854,-2.14246 9.33642,-3.54156 14.5,-8.15435 7.54255,-6.73799 18.54433,-13.33225 28.95078,-17.35254 4.24476,-1.63986 8.04892,-2.98157 8.4537,-2.98157 0.40478,0 -2.6182,2.21388 -6.71774,4.91974 C 324.43686,322.22111 313.49365,332 315.19699,332 c 0.33737,0 11.79356,-2.21721 25.4582,-4.92713 31.41346,-6.22979 50.32863,-8.86196 90.49374,-12.59281 7.60398,-0.70631 7.79557,-0.82424 23.29792,-14.34013 5.90386,-5.14734 10.35603,-9.70616 9.89372,-10.13071 -0.46232,-0.42455 -6.69057,-1.8378 -13.84057,-3.14056 -11.4776,-2.09127 -15.9277,-2.36437 -38,-2.33203 -26.65086,0.039 -34.52391,0.93536 -52.5,5.97691 -26.13918,7.33096 -53.11229,20.62466 -67.5,33.26738 -4.70322,4.13279 -16.24872,16.90975 -17.67814,19.56371 -0.82674,1.53498 -0.68534,1.75107 0.84231,1.28732 1.00971,-0.30651 5.55596,-1.72109 10.10279,-3.14349 z"
         id="path120" /><path
         style="display:inline;fill:#1e5d3b;fill-opacity:1"
         d="m 516.84195,686.11884 c 1.00113,-0.63452 0.74715,-0.98397 -1,-1.37595 C 510.57835,683.562 493.87466,676.92667 484.5,672.2927 479,669.574 461.225,660.59683 445,652.34343 c -16.225,-8.2534 -33.55,-16.45749 -38.5,-18.2313 -33.72423,-12.08494 -64.41335,-16.75135 -83.5,-12.69652 -20.27769,4.30785 -54.9753,23.77532 -76.5,42.92117 l -4,3.55793 11,-4.50771 c 33.50962,-13.73197 60.20687,-19.31753 86,-17.99277 27.88224,1.43206 51.23339,7.429 99.39264,25.52562 20.12602,7.56268 36.2044,12.46396 46.10736,14.05523 4.125,0.66283 8.175,1.33739 9,1.49903 3.56904,0.69926 21.62113,0.41849 22.84195,-0.35527 z m 2.95248,-10.214 c -0.92889,-0.51984 -2.95014,-2.00518 -4.49167,-3.30075 -10.43451,-8.7697 -42.13378,-32.59088 -53.80276,-40.43139 -23.05265,-15.48932 -49.90807,-27.32323 -69.94238,-30.82029 -10.58768,-1.84812 -23.48514,-1.36561 -31.05762,1.1619 -6.9026,2.30393 -16.5,6.62023 -16.5,7.42066 0,0.36402 5.0625,1.17863 11.25,1.81024 37.3258,3.81018 64.61187,13.65525 116.25,41.9441 26.49953,14.5172 37.35695,20.02568 44,22.32325 5.00568,1.73127 7.47007,1.66945 4.29443,-0.10772 z"
         id="path121" /><path
         style="display:inline;fill:#111111;fill-opacity:1"
         d="m 985.36615,575.51056 c 7.2171,-1.52906 16.82865,-6.27705 24.38175,-12.04423 4.6262,-3.53235 6.2521,-3.6773 6.2521,-0.55735 0,3.05565 5.9092,10.15515 9.8087,11.78447 5.2864,2.20877 13.9257,1.2305 19.9417,-2.2581 8.7314,-5.06326 14.1613,-9.76505 14.207,-12.30198 0.036,-1.99553 -0.3102,-2.25994 -2.2074,-1.68622 -5.2943,1.60103 -10.2793,1.68788 -12.25,0.21343 -1.9227,-1.43856 -2.0212,-2.99731 -2.5484,-40.32849 -0.4851,-34.34963 -0.7623,-39.43764 -2.4006,-44.07803 C 1035.6321,460.32217 1023.7598,454 1002.5162,454 c -13.85007,0 -26.74131,3.0843 -42.68174,10.21184 l -7.04416,3.1497 0.64053,4.82858 c 1.23608,9.31799 0.75346,9.1291 11.93288,4.67042 11.89363,-4.74353 23.13493,-6.56271 30.62587,-4.95619 12.94402,2.77598 16.95862,7.7837 17.77932,22.1772 0.5598,9.81721 0.5056,9.8772 -8.9465,9.9048 -6.72354,0.0196 -19.0784,1.83122 -28.21544,4.13723 -15.26749,3.85321 -25.48123,11.19195 -30.44663,21.87642 -2.08799,4.49291 -2.56557,7.05641 -2.60817,14 -0.0646,10.52573 2.08809,16.80714 7.82404,22.83021 5.01568,5.26672 8.43423,7.18839 15.6238,8.78261 7.35983,1.63196 10.25686,1.61583 18.36615,-0.10226 z m -1.89873,-19.50828 c -5.86088,-2.90116 -7.95957,-6.98643 -7.96388,-15.50228 -0.003,-5.89171 0.44573,-7.76434 2.83409,-11.8276 C 983.39064,520.07583 992.62515,516 1007.0492,516 H 1014 v 15.56456 15.56456 l -3.1131,2.68544 c -1.7123,1.47699 -5.1998,3.91927 -7.75,5.42728 -5.8292,3.44686 -13.63292,3.74856 -19.66948,0.76044 z M 1417,574.43134 c 9.4147,-2.42487 20.1316,-7.6075 29.1327,-14.08833 4.327,-3.11547 7.8673,-5.975 7.8673,-6.35452 0,-1.10332 -2.1587,-6.98849 -2.5634,-6.98849 -0.2023,0 -3.1957,1.55359 -6.6522,3.45241 -19.6694,10.8056 -39.0939,13.03606 -52.7214,6.05386 C 1380.3582,550.5092 1372,535.69685 1372,520.95078 V 517 h 41.1486 41.1486 l -0.5779,-11.25 c -0.6899,-13.43073 -3.1027,-21.96881 -8.5687,-30.32213 -4.7188,-7.21125 -7.8781,-10.2294 -15.4939,-14.8018 -14.8425,-8.91114 -39.1993,-8.84922 -57.4053,0.14594 -13.8466,6.84124 -25.09,19.9718 -30.0236,35.0627 -4.4624,13.64976 -4.2297,35.07894 0.523,48.16529 5.9167,16.29112 19.5362,27.40639 38.7492,31.62431 7.7167,1.69408 26.7778,1.05354 35.5,-1.19297 z m -44.5205,-76.16422 c 0.3929,-3.17192 1.9082,-8.85245 3.3674,-12.62341 4.7729,-12.33435 12.4037,-18.59979 22.6531,-18.59979 13.7121,0 23.5254,12.13153 24.6363,30.45608 l 0.3637,6 -25.8674,0.26712 -25.8673,0.26712 z M 828.36629,571.75 c 1.93069,-4.50405 44.35167,-94.61879 54.16396,-115.06033 2.062,-4.29568 4.08537,-7.44568 4.49638,-7 0.41101,0.44568 1.25429,11.16033 1.87397,23.81033 0.61968,12.65 2.01402,38.975 3.09855,58.5 1.08452,19.525 1.97838,36.9625 1.98636,38.75 L 894,574 h 18 18 l -0.0337,-3.75 c -0.0185,-2.0625 -0.47048,-8.475 -1.00435,-14.25 -0.53387,-5.775 -2.08488,-26.7 -3.44669,-46.5 C 919.28613,418.93157 917.7915,399.35024 916.94728,397.25 916.07775,395.08681 915.566,395 903.68264,395 h -12.36021 l -3.59096,7.75 c -1.97502,4.2625 -5.71098,12.25 -8.30213,17.75 -2.59114,5.5 -9.99978,21.25 -16.46363,35 -26.08085,55.47958 -29.19569,62.0267 -29.81789,62.67469 -0.56129,0.58457 -14.9468,-29.85023 -49.00352,-103.67469 l -8.76509,-19 -14.11428,-0.277 -14.11427,-0.27699 -0.58363,5.27699 c -0.321,2.90235 -1.25151,13.602 -2.0678,23.777 -3.65216,45.52413 -7.69222,94.27171 -9.48941,114.5 -1.07504,12.1 -2.21928,25.0375 -2.54277,28.75 L 731.8789,574 h 11.06055 c 8.17704,0 11.06286,-0.32588 11.06942,-1.25 0.005,-0.6875 0.91234,-14.975 2.01658,-31.75 4.14937,-63.03491 4.955,-76.70633 4.96464,-84.25 0.005,-4.2625 0.389,-7.75 0.85233,-7.75 0.46334,0 4.01566,6.6375 7.89406,14.75 3.87839,8.1125 15.5872,32.525 26.01956,54.25 10.43236,21.725 20.80084,43.4375 23.04108,48.25 3.18069,6.83281 4.52263,8.75 6.12459,8.75 1.36202,0 2.51964,-1.09223 3.44458,-3.25 z M 1298.9563,555 c 4.2596,-10.725 13.2642,-33.45 20.0102,-50.5 6.746,-17.05 18.9633,-47.79145 27.1495,-68.31434 8.1862,-20.52288 14.884,-37.73538 14.884,-38.25 0,-0.51461 -4.165,-0.93566 -9.2556,-0.93566 h -9.2556 l -2.6612,7.25 c -1.4637,3.9875 -4.9015,13.1 -7.6395,20.25 -13.3177,34.77719 -30.0556,78.9127 -36.4068,96 -7.3862,19.87169 -7.4929,20.12178 -8.2543,19.36033 -0.2602,-0.26016 -7.0232,-19.12266 -15.0289,-41.91667 -8.0058,-22.79401 -15.8542,-45.04366 -17.4409,-49.44366 -1.5867,-4.4 -5.6361,-15.875 -8.9987,-25.5 -3.3627,-9.625 -6.8136,-19.4125 -7.6689,-21.75 l -1.555,-4.25 h -18.5257 -18.5257 l 0.6802,2.75 c 0.3741,1.5125 7.8924,22.55 16.7074,46.75 30.4807,83.67951 42.5537,117.01624 43.8205,121 2.548,8.01289 1.5734,7.58726 16.6646,7.27789 L 1291.2117,574.5 Z m -110.6299,12.25 c -0.2438,-3.7125 -0.6505,-7.7625 -0.9039,-9 L 1186.9619,556 H 1149.4809 1112 v -31 -31 h 30 30 v -9.5 -9.5 h -30 -30 v -29 -29 h 33.5 33.5 v -10 -10 h -52 -52 v 88.5 88.5 h 56.8848 56.8849 z"
         id="path122" /></g></g></svg>
